<svg xmlns="http://www.w3.org/2000/svg" width="67.966" height="54.94"><g data-name="Group 118"><g data-name="Group 24"><g data-name="Group 23"><path data-name="Path 12" d="M39.486 14.03a1.539 1.539 0 00-1.849 0 .915.915 0 000 1.49 1.539 1.539 0 001.849 0 .915.915 0 000-1.49z" stroke="#707070"/></g></g><g data-name="Group 26"><g data-name="Group 25"><path data-name="Path 13" d="M63.542 12.721H62.5a1.078 1.078 0 100 2.107h1.046a1.2 1.2 0 011.308 1.053v35.4a1.2 1.2 0 01-1.308 1.054H4.424a1.2 1.2 0 01-1.308-1.054v-35.4a1.2 1.2 0 011.308-1.053H33a1.078 1.078 0 100-2.107H4.424C2.26 12.721.5 14.139.5 15.882v35.4c0 1.743 1.76 3.16 3.924 3.16h59.118c2.164 0 3.924-1.418 3.924-3.16v-35.4c0-1.743-1.76-3.161-3.924-3.161z" stroke="#707070"/></g></g><g data-name="Group 28"><g data-name="Group 27"><path data-name="Path 14" d="M57.787 30.998c-2.452 0-4.447 1.607-4.447 3.582s1.995 3.582 4.447 3.582 4.447-1.607 4.447-3.582-1.994-3.582-4.447-3.582zm0 5.057a1.51 1.51 0 111.831-1.475 1.684 1.684 0 01-1.831 1.475z" stroke="#707070"/></g></g><g data-name="Group 30"><g data-name="Group 29"><path data-name="Path 15" d="M60.926 18.778h-6.278a1.2 1.2 0 00-1.308 1.054v8.007a1.2 1.2 0 001.308 1.054h6.278a1.2 1.2 0 001.308-1.054v-8.007a1.2 1.2 0 00-1.308-1.054zm-1.308 8.007h-3.662v-5.9h3.662z" stroke="#707070"/></g></g><g data-name="Group 32"><g data-name="Group 31"><path data-name="Path 16" d="M60.926 40.269h-6.278a1.2 1.2 0 00-1.308 1.053v8.007a1.2 1.2 0 001.308 1.053h6.278a1.2 1.2 0 001.308-1.053v-8.007a1.2 1.2 0 00-1.308-1.053zm-1.308 8.007h-3.662v-5.9h3.662z" stroke="#707070"/></g></g><g data-name="Group 34"><g data-name="Group 33"><path data-name="Path 17" d="M66.993 4.191l-4.2-3.383a1.541 1.541 0 00-1.85 0l-5.134 4.136h0L38.778 18.663h0l-3.913 3.152a2.968 2.968 0 00-.78 4.011l-1.484 1.194a32.882 32.882 0 00-8.723-1.162c-6.093 0-11.451 2.582-14.479 6.458V20.727h23.02a1.2 1.2 0 001.308-1.054 1.2 1.2 0 00-1.308-1.054H8.086a1.2 1.2 0 00-1.308 1.055v27.812a1.2 1.2 0 001.308 1.054h41.331a1.2 1.2 0 001.308-1.054V24.028a1.339 1.339 0 00-2.616 0v14.116a22.369 22.369 0 00-5.244-5.955 27.659 27.659 0 00-7.626-4.313l.694-.559a5.108 5.108 0 001.956.38 4.819 4.819 0 003.025-1.009l3.913-3.151h0L61.858 9.818h0l5.134-4.135a.916.916 0 00.001-1.492zm-57.6 42.242v-1.05c.2.188.4.372.623.548s.447.342.681.5zm38.679 0H23.453a5.258 5.258 0 001.728-3.8c0-2.236-2.258-4.055-5.034-4.055-1.992 0-3.613 1.305-3.613 2.91a1.339 1.339 0 002.616 0 .917.917 0 011-.8 2.224 2.224 0 012.418 1.948c0 2.1-2.119 3.8-4.723 3.8-4.658 0-8.449-3.053-8.449-6.805 0-6.431 6.5-11.663 14.479-11.663 12.923-.003 23.516 8.189 24.203 18.465zM39.063 25.2a1.956 1.956 0 01-2.35 0 1.164 1.164 0 010-1.893l2.988-2.407 2.35 1.893zm4.838-3.9l-2.35-1.893L56.734 7.179l2.35 1.893zM60.934 7.582l-2.35-1.893 3.285-2.646 2.35 1.893z" stroke="#707070"/></g></g></g></svg>