<svg xmlns="http://www.w3.org/2000/svg" width="51.493" height="46.179"><g data-name="Group 127"><g data-name="Group 126"><g data-name="Group 3"><path data-name="Path 2" d="M47.209 10.516H4.284c-.586 0-1.062.288-1.062.644v13.382c0 .356.475.644 1.062.644h42.925c.586 0 1.062-.288 1.062-.644V11.16c-.001-.356-.476-.644-1.062-.644zM21.364 23.898h-9.038l6.088-4.279 4.409 3.1zm2.654 0l1.988-1.609h5.161c.586 0 1.062-.288 1.062-.644s-.475-.644-1.062-.644h-3.569l.75-.607h6.684l4.331 3.505zm5.923-4.794l1.75-1.416 1.749 1.416zm16.206 4.794h-4.13l-5.608-4.536-3.872-3.134a1.528 1.528 0 00-1.7 0l-3.873 3.134-2.842 2.3-4.909-3.451a1.557 1.557 0 00-1.607 0l-8.089 5.686H5.346V11.805h40.8z"/></g></g><path data-name="Path 3" d="M48.123 0H3.37A3.141 3.141 0 000 2.835v27.14a3.141 3.141 0 003.371 2.835h44.752a3.141 3.141 0 003.371-2.835V2.835A3.141 3.141 0 0048.123 0zm1.329 29.975a1.238 1.238 0 01-1.329 1.117H3.37a1.238 1.238 0 01-1.329-1.117V8.109h47.41zm0-23.583H2.042V2.835A1.238 1.238 0 013.37 1.717h44.753a1.238 1.238 0 011.329 1.117z"/><g data-name="Group 124"><g data-name="Group 17"><path data-name="Path 9" d="M22.892 13.793a2.339 2.339 0 102.854 2.282 2.619 2.619 0 00-2.854-2.282zm0 3.275a1.018 1.018 0 111.242-.993 1.14 1.14 0 01-1.242.993z"/></g></g><g data-name="Group 123"><g data-name="Group 19"><path data-name="Path 10" d="M47.645 38.606H7.964a1.46 1.46 0 00-.6.122L.448 41.87a.534.534 0 000 1.046l6.916 3.142a1.462 1.462 0 00.6.121h39.68c2.107 0 3.822-1.082 3.822-2.411v-2.75c0-1.33-1.714-2.412-3.821-2.412zM7.106 44.351l-4.31-1.958 4.31-1.958zm34.871-1.4H19.09c-.564 0-1.021.288-1.021.644s.457.644 1.021.644h22.888v.647H9.149v-3.053h32.829zm0-2.412H9.149v-.647h32.829zm7.447 3.226c0 .619-.8 1.123-1.779 1.123H44.02v-5h3.625c.981 0 1.779.5 1.779 1.123z"/></g></g><g data-name="Group 125"><g data-name="Group 21"><path data-name="Path 11" d="M11.856 17.318a.56.56 0 00-.046-.121.627.627 0 00-.074-.112.7.7 0 00-.1-.1.77.77 0 00-.123-.08.9.9 0 00-.139-.059.978.978 0 00-.151-.037 1 1 0 00-.315 0 .978.978 0 00-.151.037.939.939 0 00-.139.059.852.852 0 00-.122.08.745.745 0 00-.1.1.626.626 0 00-.074.112.561.561 0 00-.046.121.513.513 0 00-.015.126.522.522 0 00.015.126.587.587 0 00.046.121.624.624 0 00.074.111.753.753 0 00.1.1.912.912 0 00.122.08.952.952 0 00.139.059.964.964 0 00.151.037 1 1 0 00.158.013.981.981 0 00.157-.013.964.964 0 00.151-.037.917.917 0 00.139-.059.82.82 0 00.123-.08.712.712 0 00.1-.1.624.624 0 00.074-.111.586.586 0 00.046-.121.52.52 0 00.016-.126.511.511 0 00-.016-.126z"/></g></g></g></svg>