<svg xmlns="http://www.w3.org/2000/svg" xmlns:xlink="http://www.w3.org/1999/xlink" width="413.879" height="327.87"><defs><linearGradient id="a" x1="-7.145" y1="20.013" x2="-7.145" y2="20.009" gradientUnits="objectBoundingBox"><stop offset="0" stop-color="#fff"/><stop offset="1" stop-color="#eeeaea"/></linearGradient><linearGradient id="b" x1="-130.738" y1="749.877" x2="-130.738" y2="749.754" xlink:href="#a"/></defs><path d="M110.644 81.163l1.073 10.947H98.54a31.344 31.344 0 001.525-8.762c0-3.663-6.619-14.346-6.619-20.79s6.167-14.05 14.471-10.821 8.738 9.862 8.738 13.011-.5 11.712-2.212 14.063a4.772 4.772 0 01-3.799 2.352z" fill="#c16f60"/><path data-name="Path" d="M104.82 78.802l.426.51a19.363 19.363 0 002.707 2.761 17.844 17.844 0 002.947 1.711l-.249-2.542-.285-.045a11.073 11.073 0 01-2.508-.685 22.649 22.649 0 01-3.038-1.71z" fill="rgba(0,0,0,0.1)"/><path d="M114.876 68.065a.827.827 0 11.828-.827.827.827 0 01-.828.827z" fill="#372630"/><path data-name="Oval" d="M108.184 68.065a.827.827 0 11.827-.827.828.828 0 01-.827.827z" fill="#372630"/><path d="M112.56 74.782l-4.105-1.01a.38.38 0 00-.438.523 3.211 3.211 0 002.058 1.8q2.107.673 2.744-.8a.38.38 0 00-.2-.5.413.413 0 00-.059-.013z" fill="#904b3d"/><path d="M112.725 65.373a1.306 1.306 0 00-.228 1.439c.338.679 2.02 4.257 1.748 4.792q-.272.535-1.748.412M116.942 64.641a6.488 6.488 0 00-3.031-.054" fill="none" stroke="#4d3544" stroke-linecap="round" stroke-width=".653"/><path data-name="Path-97" d="M104.461 64.766a7.339 7.339 0 014.948-.279" fill="none" stroke="#4d3544" stroke-linecap="round" stroke-width=".653"/><path d="M116.654 68.13a16.464 16.464 0 001.492-5.629c0-1.966 1.886-2.995 1.886-5.808q0-2.814-4.329-5-.962-3.884-3.717-4.747c-2.755-.865-4.229 1.87-5.583 1.87s-7.54-1.532-9.253 0-.629 1.99-1.715 2.877-3.51 1.658-4.105 3.071.958 4.077.692 5.781-1.777 3.309-1.234 5.447 2.514 3.579 3.137 5.143-.2 4.615 1.511 4.891q1.714.276 2.088-.447-3.688-10.105-1.511-12.172c2.178-2.067 2.445 3.171 3.4 3.171s-.029-5.139 1.616-5.139 2.955.293 4.324-.486 1.052-2.724 2.832-3.023 2.711.987 4.36.3 2.793 1.327 3.161 2.315a51.954 51.954 0 01.948 7.585z" fill="#182160"/><path d="M133.259 304.896l2.121 11.641h8.305v-11.641zM82.473 304.162v14.5h8.6l2.264-14.5z" fill="#c16f60"/><path d="M131.383 163.495l12.085 77.99 1.52 68.9h-12.036l-8.282-66.464-12.374-46.246-11.284 48.368-6.839 66.075H81.801l1.063-70.489 7.072-79.612a64.552 64.552 0 0017.345 3.932q9.895.983 24.102-2.454z" fill="#182160"/><g fill="rgba(0,0,0,0.27)"><path data-name="Path" d="M89.937 162.015l-.958 10.784a51.465 51.465 0 0015.1 2.513 48.457 48.457 0 0027.864-8.213l-.559-3.6q-14.208 3.439-24.1 2.453a65.293 65.293 0 01-16.81-3.724zM112.324 197.674l12.374 46.246 8.283 66.464h.545l-5.625-70.647z"/></g><path d="M132.896 180.894l-6.054-5.288a.38.38 0 01.5-.572l6.053 5.289a.38.38 0 01-.5.572zM94.912 175.984l-5.625 4.687a.38.38 0 11-.486-.583l5.624-4.687a.38.38 0 01.487.584z" fill="#3c62ff"/><path data-name="Path-2" d="M106.614 90.451a13.772 13.772 0 01-8.15-2.939q-13.113-.376-18.2 2.939a4.638 4.638 0 00-1.739 2.224l2.288 21.686q8.2 43.3 8.2 47.376c0 4.077 16.585 10.242 26.342 9.077s16.607-4.536 17.141-8.017 3.245-3.576 4.048-7.773q.8-4.2-4.817-47.071l-3.553-18.7a10.071 10.071 0 00-3.325-1.743 99.64 99.64 0 00-12.485 0q-1.639 2.94-5.75 2.941z" fill="#182160"/><g><path d="M169.302 93.47q1.661-2.573 2.535-2.572c.873 0 6.934-5.712 6.934-6.958s-1.212-8.4-1.212-9.409 2.51-3.243 3.569-5.064 2.708-4.676 1.588-5.177-3.91 4.106-4.353 4.464q-.443.357-7.66 8.716-.429-7.549-1.957-7.549c-1.527 0-1.411 7.189-1.857 8.255s-.242 4.555-.689 5.764q-.45 1.208-2.023 5.314z" fill="#c16f60"/><path d="M176.798 75.29q-3.272-2.172-3.924-1.738c-.652.434-2.687 4.181-2.687 5.8s-.205 7.873 1.425 7.644 2.208-.84 2.881-.84 3.233-.37 3.455-1.177q.222-.81-1.15-9.689z" fill="rgba(0,0,0,0.1)"/><path data-name="Path-21" d="M177.558 74.53q-3.272-2.172-3.924-1.738c-.653.434-2.687 4.181-2.687 5.8s-.2 7.873 1.425 7.644 2.208-.84 2.881-.84 3.233-.369 3.455-1.177q.222-.81-1.15-9.689z" fill="#c16f60"/><path data-name="Path" d="M170.845 91.649q-3.675-3.166-5.984-3.733c-.557-.138-.782.968-1.762.976-.435 0-1.113-.465-1.814-.253l-.034.015c-.652.351-6.805 10.423-12.87 21.465q-18.3-22.808-22.875-22.188c-3.245.44.348 17.641 6.386 24.183 5.509 5.969 11.864 13.508 13.478 14.5 5.126 3.159 7.611 0 11.222-4.883s14.619-24.18 14.536-26.176a2.974 2.974 0 00-.78-1.407c-.289-.319 1.247-1.774.497-2.499z" fill="#3c62ff"/><path data-name="Path" d="M131.892 112.113l1.175 1.282c5.206 5.716 10.8 12.3 12.3 13.221 2.062 1.27 3.7 1.519 5.149 1.044l-22.758-22.312a24.888 24.888 0 004.134 6.765z" fill="rgba(0,0,0,0.27)"/><path data-name="Path" d="M163.323 88.87l7 5.076c.132-.523 1.162-1.677.521-2.3q-3.673-3.166-5.983-3.734c-.507-.123-.743.795-1.538.958z" fill="#fff"/></g><path data-name="Path" d="M89.017 161.734c0 4.077 16.584 10.242 26.341 9.076 9.633-1.15 16.434-4.45 17.117-7.884l.024-.133a5.884 5.884 0 01.267-1.084q-5.3 6.131-17.466 6.938-12.9.855-26.308-7.478l.016.255c.006.12.009.223.009.31z" fill="#fff"/><path data-name="Path" d="M84.252 103.447l-4.129 4.335.693 6.578 1.373 7.277q3.078 16.395 4.769 26.157l1.012-.749q19.306-14.344 24.4-22.919 5.689-9.576-6.287-10.815l-.268-.026-18.1 5.25z" fill="rgba(0,0,0,0.27)"/><path data-name="Path" d="M112.368 87.511q-1.641 2.938-5.753 2.939a13.769 13.769 0 01-8.149-2.939q-1.056-.037-2.059-.05c.656 2.948 4.614 5.213 9.4 5.213 4.817 0 8.8-2.3 9.414-5.272q-1.355.043-2.853.109z" fill="#fff"/><g><path d="M136.992 95.965h-22.411a2.281 2.281 0 00-2.1 1.391l-11.127 26.3a1.519 1.519 0 00.418 1.752l.838.71 20.9-.287a2.279 2.279 0 002.01-1.265l13.242-26.657-.337-.938a1.521 1.521 0 00-1.433-1.006z" fill="#fca904"/><path data-name="Rectangle" d="M137.379 96.919h-21.916a2.28 2.28 0 00-2.1 1.387l-11.119 26.149a1.519 1.519 0 001.4 2.114h20.575a2.279 2.279 0 002.058-1.3L138.75 99.09a1.519 1.519 0 00-1.371-2.173z" fill="#ffbf29"/><path data-name="Rectangle" d="M135.761 99.198a1.5 1.5 0 00-1.375.906l-.84 1.953a.649.649 0 00.341.853.639.639 0 00.255.052 1.5 1.5 0 001.375-.906l.84-1.953a.65.65 0 00-.34-.853.643.643 0 00-.256-.052z" fill="#182160"/><path d="M121.915 109.834a2.784 2.784 0 00-.843.139 1.226 1.226 0 01-.072.241 1.921 1.921 0 01-1.61 1.14 1.01 1.01 0 01-.23-.026 3.375 3.375 0 00-.464.785c-.52 1.259.079 2.279 1.338 2.279a3.839 3.839 0 003.221-2.279c.518-1.259-.081-2.279-1.34-2.279z" fill="#eaefff"/><path d="M102.646 120.973a27.292 27.292 0 011.632-4.594c.757-1.5 1.521-6.772 2.739-6.6s1.286 2.479 1.128 3.6a13.044 13.044 0 01-.336 1.739q9.076-6.942 9.826-6.26t-.785 3.276a4.384 4.384 0 01.612 1.331c.144 1.133-1.169 2.047-1.79 3.346-.481 1.007 0 .485-.366 3.088a6.65 6.65 0 01-4.931 5.159q-2.383.7-5.667 1.894a13.28 13.28 0 01-1.354-3.125q-.339-1.328-.708-2.854z" fill="#c16f60"/><path data-name="Path" d="M81.476 89.67a6.441 6.441 0 00-3.043 2.982c-2.953 5.332-23.08 43.368-15.909 50.02 5.68 5.269 37.244-9.444 39.237-10.845.613-.431.752-2.576 1.356-2.886a3.142 3.142 0 001.563-2.2q-1.98-4.993-1.866-6.779c.04-.615-.867.241-1.358-.214a2.3 2.3 0 00-1.99-.889c-1.184 0-21.822 10.345-22.5 9.013-.453-.888 3.157-7.182 6.463-16.936s-.324-22.058-1.953-21.266z" fill="#3c62ff"/><path data-name="Path" d="M101.762 124.685c.656 1.868 1.225 2.69 1.325 4.272l.031-.017a3.139 3.139 0 001.563-2.2q-1.979-4.994-1.865-6.779c.038-.588-.788.234-1.289-.156-.758 1.685-.38 3.132.235 4.88z" fill="#fff"/></g><path d="M143.685 314.956h-8.887l.017 10.631a.76.76 0 00.755.759l27.639.153a.759.759 0 00.765-.755.943.943 0 00-.008-.118l-.274-1.824a.756.756 0 00-.456-.587l-19.55-8.258z" fill="#2a3036"/><path data-name="Path-85" d="M82.28 314.956h9.646l-.017 10.631a.759.759 0 01-.755.759l-28.4.153a.761.761 0 01-.764-.756.788.788 0 01.009-.118l.273-1.824a.758.758 0 01.456-.587l19.551-8.258z" fill="#2a3036"/><g><path data-name="Rectangle" d="M232.752 58.051h104.975a2.56 2.56 0 012.56 2.561v38.405a2.56 2.56 0 01-2.56 2.561H237.681a2.557 2.557 0 00-1.806.746l-3.5 3.482a1.282 1.282 0 01-2.185-.907V60.613a2.561 2.561 0 012.562-2.562z" fill="#d1e2fb"/><g fill="#fff"><path data-name="Rectangle" d="M243.635 69.573h81.931a2.561 2.561 0 012.56 2.561v.64a2.561 2.561 0 01-2.56 2.56h-81.931a2.561 2.561 0 01-2.562-2.56v-.64a2.561 2.561 0 012.562-2.561zM244.273 84.295h56.328a2.561 2.561 0 012.56 2.561v.64a2.561 2.561 0 01-2.56 2.56h-56.328a2.56 2.56 0 01-2.561-2.56v-.64a2.56 2.56 0 012.561-2.561z"/></g></g><g data-name="Group-26"><path data-name="Rectangle" d="M109.653 0h-57.7a2.025 2.025 0 00-2.025 2.024V32.9a2.025 2.025 0 002.025 2.025h53.806a2.024 2.024 0 011.428.589l2.767 2.754a1.012 1.012 0 001.727-.717V2.024A2.025 2.025 0 00109.653 0z" fill="#d1e2fb"/><g data-name="Group-15" fill="#fff"><path data-name="Rectangle" d="M100.035 10.123H61.06a2.024 2.024 0 00-2.024 2.025v.506a2.024 2.024 0 002.024 2.025h38.975a2.025 2.025 0 002.025-2.025v-.506a2.025 2.025 0 00-2.025-2.025zM100.035 21.258h-24.3a2.024 2.024 0 00-2.024 2.025v.506a2.024 2.024 0 002.024 2.025h24.3a2.025 2.025 0 002.025-2.025v-.506a2.025 2.025 0 00-2.025-2.025z"/></g></g><g><path d="M56.877 260.096l9.325 66.414-4.889-.065-9.325-65.655z" fill="#a1b2f2"/><path data-name="Path" d="M42.321 260.096l-9.325 66.414 4.89-.065 9.325-65.655z" fill="#91a0da"/><path data-name="Path-25" d="M82.707 260.096l9.325 66.414-4.889-.065-9.325-65.655z" fill="#91a0da"/><path data-name="Path" d="M92.685 256.306a7.749 7.749 0 00-7.75-7.749h-29.1a10.028 10.028 0 01-10.028-10.028v-55.611a10.028 10.028 0 00-10.028-10.028H18.39a10.029 10.029 0 00-10.029 10.028v71.109a10.029 10.029 0 0010.029 10.028h66.549a7.749 7.749 0 007.746-7.749z" fill="#a1b2f2"/><path data-name="Path" d="M18.385 172.89a1.761 1.761 0 00-2.431 2.431v71.106a10.028 10.028 0 0010.028 10.028h66.7v-.15a7.748 7.748 0 00-7.75-7.749H55.827a10.029 10.029 0 01-10.028-10.028v-55.611a10.028 10.028 0 00-10.027-10.028z" fill="rgba(0,0,0,0.1)"/><path data-name="Path" d="M16.489 260.096L7.165 326.51l4.889-.065 9.325-65.655z" fill="#a1b2f2"/></g><g data-name="Group-13"><path data-name="Path" d="M115.672 172.763c.756-.149 7.969-5.742 8.753-9.335s-1.385-9.947-2.418-10.262-1.794 2.015-6.335 8.371q-.869-6.449-1.728-6.449c-1.32 0-1.249 5.893-1.615 6.99l-.022.063a32.254 32.254 0 00-.964 5.838q-15.276 13.514-19.636 17.662c-.665.633-24.632-20.98-25.208-20.416q-3.679 3.6 4.754 17.4 15.343 18.408 20.454 16.1c5.955-2.703 21.973-25.569 23.965-25.962z" fill="#ffa475"/><path d="M64.997 164.746c3.585.181 24.355 19.309 25.587 19.309q1.232 0 18.965-16.159l5.846 5.366q-21.239 26.989-24.579 27.018c-3.34.028-18.908-12.472-22.712-16.632s-6.691-19.085-3.107-18.902z" fill="#3c62ff"/><path data-name="Path" d="M65.973 169.814l21.146 28.9c-5.893-3.48-16.042-11.819-19.015-15.068a9.052 9.052 0 01-1.033-1.42z" fill="rgba(0,0,0,0.27)"/><path d="M109.729 166.287l-2.425 2.744 6.148 8.906 3.412-4.941z" fill="#182160"/><path data-name="Path" d="M29.81 166.972c4.336-5.309 34.771-2.639 35.451-2.224q7.215 13.31 8.167 20c.954 6.7-.877 13.344-1.882 16.986l-2.51 28.546-35.577-1.136q2.049-16.6 1.948-20.137c-.101-3.534-9.622-37.109-5.597-42.035z" fill="#3c62ff"/><path data-name="Path" d="M35.492 179.598l3.976 24.172 19.956 21-19.956 4.459h-3.534l-2.475-.078.511-4.224q1.5-12.628 1.439-15.8v-.108c-.066-2.283-4.051-17.067-5.791-28.6z" fill="rgba(0,0,0,0.27)"/><path data-name="Path" d="M52.296 167.783l1.08-.364.352 1.056.506 1.543 1.924 5.92c1.909 5.919 3.223 10.366 3.263 13.357v.219c0 2.342-1.552 15.854-1.552 17.309v23.8h-1.14v-24.228l.008-.518.015-.3c.16-2.389 1.467-13.31 1.524-15.7v-.363c.008-4.094-2.494-11.356-5.98-21.731z" fill="#182160"/><g data-name="Group-3"><path data-name="Path" d="M24.682 202.986l-7.077 6.474c12.364 6.64 26.336 16.016 27.2 16.6 1.33.9 4.228 1.39 5.352 1.724a10.752 10.752 0 003.382.3c.583-.145-.482-1.011-1.341-1.828q3.746 1.8 4.12 1.5c.4-.325-.212-1.664-1.1-2.565q5.7 2.746 6.814 2.371c1.615-.542-6.619-6.056-7.827-6.4a36.521 36.521 0 00-6.851-1.042z" fill="#ffa475"/><path data-name="Path" d="M30.333 166.643a13.713 13.713 0 00-1.98 1.928c-3.747 4.006-20.28 30.334-18.378 35.682q1.1 3.1 31.313 20.631l5.5-6.07q-22.465-17.545-22.538-17.856c-.2-.871 3.4-8.11 9.2-15.646 6.457-9.21 7.954-12.9 2.6-17.418-1.689-1.423-4.523-2.201-5.717-1.251z" fill="#3c62ff"/><path d="M45.152 215.525l-9.146 7.4 4.892 3.008 7.293-7.276z" fill="#182160"/></g><path d="M57.003 128.744q2.088-1.587 3.822-.471a13.675 13.675 0 015.25 8.257 68.245 68.245 0 011.319 14.276 40.855 40.855 0 001.514 10.731 76.584 76.584 0 01-8.721-1.258 29.808 29.808 0 01-5.987-2.168z" fill="#0a0f31"/><path d="M63.174 135.344c2.285 4.356.949 24.418-4.945 24.418a6.153 6.153 0 01-2.724-.663v5.472q-.1 3.031-3.562 3.031a11.091 11.091 0 01-6.366-1.975q1.63-6.59.79-10.016c-.841-3.427-8.739-14.83-4.8-22.121s19.323-2.502 21.607 1.854z" fill="#ffa475"/><g data-name="Group-19"><g data-name="Group-16" transform="translate(53.433 142.343)"><circle data-name="Oval" cx=".91" cy=".91" r=".91" transform="translate(8.388 2.557)" fill="#372630"/><circle data-name="Oval" cx=".91" cy=".91" r=".91" transform="translate(1.025 2.557)" fill="#372630"/><path data-name="Path-95" d="M7.014 2.846a4.834 4.834 0 00.434 1.916c.373.746 1.454 1.992 1.154 2.581q-.3.59-1.923.455" fill="none" stroke="#ca7a50" stroke-linecap="round" stroke-width=".599"/><path d="M7.775 10.918c-.126-.547-4.085-.405-4.548-.3s1.247 1.714 2.605 1.768 2.069-.921 1.943-1.468z" fill="#ca6750"/><path data-name="Path-97" d="M11.491.976A7.127 7.127 0 008.304 0M0 .892A9.938 9.938 0 014.094.133" fill="none" stroke="#4d3544" stroke-linecap="round" stroke-width=".719"/></g><path data-name="Path" d="M50.739 156.25l4.765 2.849v3.751z" fill="rgba(0,0,0,0.1)"/></g><path data-name="Path" d="M61.043 128.358a3.748 3.748 0 00-4.073.471l-.472 5.026.716 1.166c4.508 6.578 7.725 8.338 9.965 8.554q-.64-4.855-1.153-7.2a12.829 12.829 0 00-4.983-8.017z" fill="#182160"/><path d="M59.52 137.201a16.413 16.413 0 01-7.333 8.646q-2.514 1.407-1.226 15.689a62.712 62.712 0 01-9.546-2.694q-3.244-1.313-3.768-3.372-1.171-16.6.912-20.972a12.4 12.4 0 018.9-6.852q7.37-1.13 11.589.916a10.966 10.966 0 01.472 8.639z" fill="#182160"/><g><path d="M98.166 311.399v14.7a.759.759 0 00.76.76h.608a.76.76 0 00.747-.616l1.508-7.874q7.428 8.489 9.076 8.49h8.892a1.519 1.519 0 001.185-2.47 7.7 7.7 0 00-2.059-1.862q-1.893-1.114-8.958-11.958a1.52 1.52 0 00-1.273-.689h-8.967a1.519 1.519 0 00-1.519 1.519z" fill="#2a3036"/><path data-name="Path-49" d="M64.738 310.637v15.46a.759.759 0 00.76.76h.608a.761.761 0 00.747-.616l1.508-7.874q7.427 8.489 9.076 8.49H88.2a1.519 1.519 0 001.369-2.177 4.684 4.684 0 00-1.84-2.081q-1.931-1.137-11.454-12.452a.759.759 0 00-.581-.27h-10.2a.759.759 0 00-.756.76z" fill="#2a3036"/><path d="M65.462 258.348l4.642-.805-.362-1.054-4.862.566z" fill="#182160"/><path d="M104.692 237.273q5.259 5.434 2.922 74.115 7.591 9.485 4.05 9.485c-3.542 0-10.2-7.227-10.928-8.394-.414-.663-3.578-15.033-8.376-41.933a82.067 82.067 0 01-.623-14.634q-36.786 3.625-43.5 0t-9.32-20.16q60.515-3.914 65.775 1.521z" fill="#ef9669"/><path data-name="Path" d="M96.007 234.98l-.058.035q-2.6 1.66-3.373 7.092l-.348 2.588q-.67 4.887-2.016 13.856 0-1.27.025-2.638l-1.415.144q-22.094 2.215-32.61 1.491l5.271-23.086H92.4q2.026.218 3.607.518z" fill="rgba(0,0,0,0.1)"/><path data-name="Path-38" d="M88.24 240.534q5.26 5.434-13.474 70.563 8.207 10.188 5.022 10.188t-12.175-9.17q1.467-28.961 1.468-37.086t4.006-19.611q-33.385 5.087-39.845 0t0-23.707q49.738 3.388 54.998 8.823z" fill="#ffa475"/><path data-name="Path" d="M64.88 238.948l-1.9 8.819-5.946-2.488z" fill="rgba(0,0,0,0.1)"/><path d="M87.616 234.462c-2.307 0-12.4-.184-17.767 1.466a8.815 8.815 0 00-5.389 6.927q-.094.521-4.954 1.581 4.585 1.925 4.539 2.887-.135 2.792 1.417 11.026-30.423 2.147-34.087-4.924t1.434-23.772l37.041.966q10.468 1.092 17.767 2.361a73.772 73.772 0 018.391 1.867q-6.085-.386-8.392-.385z" fill="#182160"/><path data-name="Path" d="M33.243 231.71l.828.028-.026.907q-.365 14.555 2.544 17.009 2.938 2.481 28.267 5.3l.155.914q.205 1.172.451 2.48l-1.206.082q-29.29 1.925-32.881-5.005-3.665-7.073 1.868-21.715z" fill="rgba(0,0,0,0.27)"/></g><path data-name="Path" d="M57.021 229.418a37.239 37.239 0 0012.512-1.975l.571 3.268q-3.686 1.365-13.083 1.364a158.3 158.3 0 01-24.381-2.022l.427-1.127q.231-.613.493-1.332l.134-.365h.8l1.181.169a168.453 168.453 0 0021.346 2.02z" fill="#fff"/><g data-name="Group-16" fill="#182160"><path d="M52.835 167.601l-6.568-3.891-4.981.131 8.45 8.058zM52.835 167.601l4.844 3.335v-6.887l-2.074-.1z"/></g></g><g data-name="Group-26"><path data-name="Rectangle" d="M56.219 213.914h41.024a1.519 1.519 0 011.52 1.52v4.558a1.52 1.52 0 01-1.52 1.52H56.219a1.52 1.52 0 01-1.52-1.52v-4.558a1.52 1.52 0 011.52-1.52z" fill="#aa58d4"/><path data-name="Rectangle" d="M56.219 213.914H78.25a1.519 1.519 0 011.52 1.52v4.558a1.52 1.52 0 01-1.52 1.52H56.219a1.52 1.52 0 01-1.52-1.52v-4.558a1.52 1.52 0 011.52-1.52z" fill="#cf6fff"/><path data-name="Rectangle" d="M56.067 214.674H77.49a1.519 1.519 0 011.52 1.52v3.039a1.519 1.519 0 01-1.52 1.519H56.067a1.367 1.367 0 01-1.368-1.367v-3.343a1.367 1.367 0 011.368-1.368z" fill="#eaefff"/></g><g data-name="Group-26"><path data-name="Rectangle" d="M60.018 206.317h41.024a1.519 1.519 0 011.52 1.52v4.558a1.52 1.52 0 01-1.52 1.519H60.018a1.52 1.52 0 01-1.52-1.519v-4.558a1.52 1.52 0 011.52-1.52z" fill="#d64cb0"/><path data-name="Rectangle" d="M60.018 206.317H82.05a1.519 1.519 0 011.52 1.52v4.558a1.52 1.52 0 01-1.52 1.519H60.018a1.52 1.52 0 01-1.52-1.519v-4.558a1.52 1.52 0 011.52-1.52z" fill="#fc60d2"/><path data-name="Rectangle" d="M59.866 207.077h21.423a1.519 1.519 0 011.521 1.52v3.039a1.52 1.52 0 01-1.521 1.519H59.866a1.368 1.368 0 01-1.368-1.367v-3.343a1.368 1.368 0 011.368-1.368z" fill="#eaefff"/></g><g data-name="Group-8"><path data-name="Path-25" d="M322.979 259.336l-9.326 66.415 4.89-.065 9.325-65.655z" fill="#a1b2f2"/><path data-name="Path" d="M337.535 259.336l9.325 66.415-4.889-.065-9.326-65.655z" fill="#91a0da"/><path data-name="Path-25" d="M297.147 259.336l-9.324 66.415 4.889-.065 9.324-65.655z" fill="#91a0da"/><path data-name="Path" d="M287.17 255.546a7.749 7.749 0 017.749-7.75h29.105a10.028 10.028 0 0010.029-10.028v-55.611a10.028 10.028 0 0110.03-10.027h17.388a10.029 10.029 0 0110.028 10.028v71.109a10.029 10.029 0 01-10.028 10.028H294.92a7.75 7.75 0 01-7.75-7.749z" fill="#a1b2f2"/><path data-name="Path" d="M361.47 172.13a1.761 1.761 0 012.43 2.431v71.106a10.028 10.028 0 01-10.028 10.028h-66.7v-.15a7.749 7.749 0 017.749-7.75h29.105a10.028 10.028 0 0010.029-10.028v-55.611a10.028 10.028 0 0110.028-10.026z" fill="rgba(0,0,0,0.1)"/><path data-name="Path" d="M363.365 259.336l9.326 66.415-4.889-.065-9.325-65.655z" fill="#a1b2f2"/></g><g data-name="Group-8"><path data-name="Path-25" d="M203.703 259.336l-9.325 66.415 4.89-.065 9.325-65.655z" fill="#a1b2f2"/><path data-name="Path" d="M218.26 259.336l9.325 66.415-4.889-.065-9.325-65.655z" fill="#91a0da"/><path data-name="Path-25" d="M177.873 259.336l-9.325 66.415 4.889-.065 9.325-65.655z" fill="#91a0da"/><path data-name="Path" d="M167.895 255.546a7.749 7.749 0 017.75-7.75h29.1a10.028 10.028 0 0010.028-10.028v-55.611a10.028 10.028 0 0110.036-10.027h17.389a10.028 10.028 0 0110.028 10.028v71.109a10.028 10.028 0 01-10.028 10.028h-66.55a7.75 7.75 0 01-7.753-7.749z" fill="#a1b2f2"/><path data-name="Path" d="M242.196 172.13a1.761 1.761 0 012.431 2.431v71.106a10.029 10.029 0 01-10.028 10.028h-66.7v-.15a7.749 7.749 0 017.75-7.75h29.1a10.028 10.028 0 0010.028-10.028v-55.611a10.028 10.028 0 0110.032-10.026z" fill="rgba(0,0,0,0.1)"/><path data-name="Path" d="M244.089 259.336l9.325 66.415-4.889-.065-9.325-65.655z" fill="#a1b2f2"/></g><g data-name="Group"><path d="M279.526 294.233l2.162 19.7 2.9 2.9 5.9-2.9v-19.7z" fill="#ffb294"/><path data-name="Path-38" d="M266.534 230.871q-5.259 5.435 11.386 78.639h13.642l-1.52-55.924q37.589-1.693 44.3-5.318t9.661-24.234l-29.1-5.089q-45.652 9.114-48.369 11.926z" fill="#101643"/><path data-name="Path-39" d="M315.231 294.993l2.278 19.606 3.543 2.989 5.713-4.17-.573-18.424z" fill="#ffb294"/><path data-name="Path-85" d="M281.752 313.112h8.887l-.015 10.632a.761.761 0 01-.756.758l-27.639.153a.76.76 0 01-.765-.755.678.678 0 01.008-.118l.274-1.825a.759.759 0 01.455-.587l19.551-8.258zM317.46 313.112h9.646l-.017 10.632a.76.76 0 01-.756.758l-28.4.153a.76.76 0 01-.764-.755.632.632 0 01.009-.117l.273-1.825a.757.757 0 01.456-.587l19.551-8.258z" fill="#2a3036"/><path data-name="Path-38" d="M298.586 234.727q-5.259 5.435 15.041 74.784h13.641l-4.982-55.114q24.913-1.842 31.373-6.93t0-28.236q-17 3.508-23.781 4.8c-17.142 3.275-28.778 8.1-31.292 10.696z" fill="#182160"/><path data-name="Path" d="M353.655 219.232q.926 3.318 1.586 6.264a52.906 52.906 0 01-9.868 2.093 81.881 81.881 0 01-25.869-1.237 163.741 163.741 0 019.513-2.152l3.8-.737q7.066-1.388 20.838-4.231z" fill="rgba(0,0,0,0.27)"/><path data-name="Path" d="M328.536 142.313l-1.067 13.175h13.115a60.191 60.191 0 01-1.517-11c0-3.646 5.2-16.751 6.587-20.694s-6.587-12.752-14.4-10.77-8.7 9.815-8.7 12.951.5 11.657 2.2 14a4.748 4.748 0 003.782 2.338z" fill="#ffb294"/><g data-name="Group-10"><path data-name="Path" d="M334.411 140.128a21.774 21.774 0 01-3.133 3.271 17.9 17.9 0 01-2.947 1.712l.249-2.544.285-.044a11.12 11.12 0 002.509-.685 22.761 22.761 0 003.037-1.71z" fill="rgba(0,0,0,0.1)"/><g data-name="Group-16"><path data-name="Oval" d="M324.354 129.39a.827.827 0 10-.828-.827.828.828 0 00.828.827zM331.046 129.39a.827.827 0 10-.826-.827.827.827 0 00.826.827z" fill="#372630"/><path data-name="Path-95" d="M326.28 129.082c0 .754-1.565 3.177-1.292 3.713q.272.535 1.748.413" fill="none" stroke="#a86f59" stroke-linecap="round" stroke-width=".653"/><path data-name="Path-97" d="M322.289 125.967a6.474 6.474 0 013.03-.054M334.01 126.092a7.346 7.346 0 00-4.949-.279" fill="none" stroke="#a86f59" stroke-linecap="round" stroke-width=".653"/></g></g><path d="M322.729 123.238q-4.69-7.227-1.773-9.706c2.915-2.478 16.989-2.739 19.117-1.307a9.029 9.029 0 013.041 3.92s4.854 3.529 3.647 7.984a44.5 44.5 0 01-5.4 11.155q2.489-11.155 0-11.155c-2.488 0-1.189 7.9-2.21 7.48s-2.314-8.989-4.569-9.559q-2.254-.57-11.853 1.188z" fill="#182160"/><path d="M325.564 135.82l4.365-.433a2.418 2.418 0 01-2.059 1.775 1.907 1.907 0 01-2.306-1.342z" fill="#a86f59"/><path data-name="Path-2" d="M330.979 155.025l9.669-5.218q13.145-.47 18.2 2.939.546.369 2.352 1.874l-2.9 22.036q-9.266 33.7-8.989 38.541c.159 2.78-8.469 6.533-20.151 6.836-8.645.225-21.2-2.359-21.429-3.839-.533-3.481-4.361-4.275-5.164-8.471q-.8-4.2 4.817-39.474l3.186-19.4a22.2 22.2 0 013.694-1.044 99.718 99.718 0 0112.484 0z" fill="#fff"/><path d="M331.738 154.828l-1.112-.247-.726 3.279-.9 4.113c-6.96 31.98-9.9 42.727-8.822 47.713l.035.153a61.649 61.649 0 011.765 11.992l1.139-.052a62.746 62.746 0 00-1.8-12.213c-1.191-4.839 2.286-18.139 10.421-54.738z" fill="#c4d1ff"/><path data-name="Path" d="M347.656 216.715l.335 5.037q-14.022 4.439-24.938 3.252a59.461 59.461 0 01-15.781-3.494l.457-3.316q14.208 3.439 24.1 2.453 9.6-.955 15.463-3.755z" fill="#3c62ff"/><path data-name="Path-9" d="M340.648 149.807l-9.189 4.9 5.624 6.142 5.624-11.04z" fill="#c4d1ff"/><path data-name="Path-11" d="M326.743 149.807l4.438 4.9-6.2 5.516-.586-10.522z" fill="#c4d1ff"/><path d="M342.164 149.618q-8.859 34.967-8.859 48.752t.541 27.285a70.621 70.621 0 0011.576-1.808q3.688-1.052 10.436-5.391-2.856-15.718-1.489-25.168t5.866-38.325q-2.255-3.694-8.416-4.4t-9.655-.945z" fill="#182160"/><path data-name="Path" d="M352.077 164.354l6.343 5.236-1.357 10.8q-1.89 14.933-2.7 20.5a61.8 61.8 0 00-.02 14.674l-19.318-3.23-1.71-1.6q-.016-2.376-.016-4.76v-.616c0-.105 0-.211.005-.319l18.763-14.905z" fill="rgba(0,0,0,0.27)"/><path data-name="Path" d="M342.165 149.618l.942.07c.221.017.447.036.68.056l3.463 11.1-5.594 4.627 3.767 4.984-11.984 31.688.041-.617q1.069-15.32 8.685-51.908z" fill="#3c62ff"/><path d="M325.158 149.698q-8.609 29.866-10.035 40.114t-1.84 35.191q-11.266-4.411-13.5-6.844t10.784-67.308a12.292 12.292 0 014.557-1.233 60.439 60.439 0 0110.034.08z" fill="#182160"/><g data-name="Group-12"><path data-name="Path-20" d="M267.682 156.412q-1.414-2.595-2.246-2.653c-.833-.058-8.588-8.237-9.149-12.359s2.812-11.19 3.425-11.418q1.1-.409 7.714 10.884.919-7.262 2.377-7.16c1.457.1.86 7.037 1.214 8.1s-.077 4.415.268 5.613q.347 1.2 1.573 5.268z" fill="#ffb294"/><path data-name="Path" d="M272.604 149.871c.729.22 9.876 13.295 17.506 24.062q18.019-24.394 22.785-23.749c1.773.241-1.295 13.518-6.783 23.749-4.969 9.258-11.983 15.362-13.657 16.394-5.341 3.291-7.929 0-11.69-5.086s-16.746-26.707-16.66-28.786c.006-.196 7.767-6.804 8.499-6.584z" fill="#182160"/><path data-name="Path" d="M306.113 173.932c-4.969 9.258-11.983 15.362-13.658 16.394-2.222 1.368-3.967 1.6-5.519 1.035l21.585-22.411a70.246 70.246 0 01-2.408 4.982z" fill="rgba(0,0,0,0.27)"/></g><g><path data-name="Path" d="M360.125 154.456c3.137 5.225 24.4 34.9 17.466 41.8-5.494 5.464-28.8 15.11-29.871 15.509-.565.21-2.364-.731-2.531-.716s-.384.576-1.181-.281a17.688 17.688 0 01-3-4.19c-.117-.264.359-.631.4-.984a10.843 10.843 0 01.867-4.264c.933-2.161 21.4-10.518 22.032-11.874.42-.9-3.86-6.865-8.225-14s-6.094-16.633-3.711-20.481c3.221-5.215 7.522-.906 7.754-.519z" fill="#182160"/><path data-name="Path" d="M377.592 196.251c-5.493 5.464-28.795 15.11-29.87 15.51-.566.209-2.364-.732-2.531-.717s-.384.576-1.181-.28l-.062-.067 34.157-15.073a4.081 4.081 0 01-.513.627z" fill="rgba(0,0,0,0.27)"/><path data-name="Path-36" d="M345.905 206.231c2.125 3.2-.926 4.978-1.987 5.458s-3.655 1.339-4.839 1.156q-1.184-.183-.826-1.4a4.388 4.388 0 01-2.894 1.531c-.795-.042-1.187-.637-1.183-1.787q-3.766 2.484-4.67 1.992t.481-2.63a23.357 23.357 0 01-2.9 1.284c-2.536.808-3.49 2.217-5.033 2.006-2.235-.306 6.335-5.877 7.816-6.644a43.445 43.445 0 015.563-2.737 25.982 25.982 0 018.009-.28 4.266 4.266 0 012.463 2.051z" fill="#ffb294"/></g><path data-name="Path" d="M325.159 149.695l-1.332 5.82q-7.311 32.11-8.675 41.684l-.029.207q-.071.519-.142 1.073l-.961-29.98 5.005-4.87-3.836-5.183 8.225-8.855 1.148.067z" fill="#3c62ff"/></g><g data-name="Group-13"><g data-name="Group-4"><path d="M201.389 304.082l1.063 6.455h8.44l-.76-6.455z" fill="#ffada6"/><path data-name="Path-50" d="M168.574 306.786l.541 6.456h8.659v-6.456z" fill="#ffada6"/><path data-name="Path-38" d="M154.072 234.234c-5.265 6.917 13.775 73.467 13.9 74.081q.125.593 10.126.043a.758.758 0 00.716-.8v-.007l-3.32-51.979q36.972-.591 43.683-4.217t9.32-21.679q-23.81-13.388-29.269-11.963c-1.428.373-.627 9.847-1.759 9.847-24.297 0-39.94 2.126-43.397 6.674z" fill="#101643"/><path data-name="Path-38" d="M184.369 236.958c-5.168 5.622 17.069 71.12 17.262 71.357q.184.227 8.793.02a.758.758 0 00.741-.777v-.055l-4.9-51.263q26.432-1.054 32.892-6.142t0-23.706l-27.351-.322q-22.629 5.659-27.437 10.888z" fill="#182160"/><path data-name="Path" d="M239.15 226.392l-27.352-.322-1.5.379q-5.542 1.421-9.957 2.814a84.768 84.768 0 0025.777 3.644h1.833q8.074-.033 13.077-.349-.735-2.872-1.878-6.166z" fill="rgba(0,0,0,0.27)"/><path data-name="Path-49" d="M179.132 311.399v14.7a.759.759 0 01-.759.76h-.61a.759.759 0 01-.746-.616l-1.508-7.874q-7.428 8.489-9.077 8.49h-9.651a1.519 1.519 0 01-1.185-2.47 7.713 7.713 0 012.058-1.862q1.9-1.118 9.713-12.015a1.522 1.522 0 011.234-.633h9.011a1.518 1.518 0 011.52 1.52zM211.8 310.637v15.46a.759.759 0 01-.76.76h-.609a.759.759 0 01-.746-.616l-1.508-7.874q-7.427 8.489-9.077 8.49h-10a1.518 1.518 0 01-1.37-2.177 4.675 4.675 0 011.841-2.081q1.928-1.137 11.453-12.452a.759.759 0 01.581-.27h9.438a.76.76 0 01.757.76z" fill="#252629"/></g><g data-name="Group-7"><path d="M232.675 161.478l-14.041-.78.23 1.706 13.136.688z" fill="#293061"/><path data-name="Path-47" d="M232.539 135.107c-.953-1.195-3.711-2.521-6.116-2.647s-13.581 3.447-14.677 7.971a16.41 16.41 0 00.5 10.3c1.256 3.107 3.79 4 3.655 6.563-.287 5.464-8.775 54.455-7.929 55.189s11.056 5.363 19.472 4.551 12.041-2.179 12.08-2.9 1.662-67.214-.309-72.835-5.723-4.997-6.676-6.192z" fill="#0a0f31"/><path data-name="Path-43" d="M4121.694 2123.576c-.265 5.075 6.529 13.064 6.477 14.075s-22 5.175-33.571 4.28a109.862 109.862 0 01-13.355-1.865l6.53-32.6q-2.071-1.9-1.708-5.824t.788-6.893l6.143-19.543a9.313 9.313 0 012.841-.876c3.438.18 31.15-1.137 35.357 4.112q4.208 5.249 9.095 18.6l-7.828 5.995-3.6-5.673q-6.901 21.136-7.169 26.212z" transform="translate(-3884.36 -1912.551)" fill="url(#a)"/><path data-name="Path-46" d="M214.552 131.001c-2.375 4.006-2.073 24.761 3.5 25.054a5.957 5.957 0 002.458-.377l-.312 6.359q-.053 2.873 3.217 3.043t6.2-2.989q-1.216-6.312-.25-9.511c.965-3.2 9.083-15.172 5.72-22.262s-18.157-3.324-20.533.683z" fill="#ffada6"/><g data-name="Group-16" transform="translate(212.623 139.46)"><circle data-name="Oval" cx=".827" cy=".827" r=".827" transform="translate(1.045 2.273)" fill="#372630"/><circle data-name="Oval" cx=".827" cy=".827" r=".827" transform="translate(7.729 2.623)" fill="#372630"/><path data-name="Path-95" d="M3.198 4.885c-.375.66-1.122 1.218-.878 1.767q.244.549 1.725.5" fill="none" stroke="#ed7f76" stroke-linecap="round" stroke-width=".544"/><path d="M3.373 10.426a25.54 25.54 0 014.378.039 4.374 4.374 0 01-2.779 1.652q-1.306.062-1.599-1.691z" fill="#ed7f76"/><path data-name="Path-97" d="M0 .734A6.5 6.5 0 012.941 0M11.193 1.244A9.037 9.037 0 007.513.36" fill="none" stroke="#4d3544" stroke-linecap="round" stroke-width=".653"/></g><path data-name="Path" d="M224.979 153.318l-4.461 2.359-.179 3.406z" fill="rgba(0,0,0,0.1)"/><path data-name="Path" d="M226.585 124.259c-2.4-.126-13.349 4.219-14.445 8.744a14.159 14.159 0 00.537 9.545c.066.162.133.317.206.467l.026-.6c.087-1.734.26-3.443.774-3.726l1.371-.749c4.438-2.4 6.582-3.312 6.582-3.312l.19.813q2.184 9.2 4.439 11.719l.1.106c4.557 4.788 5.579 10.338 5.563 15.755l8.68.77.013-5.467c0-12.5-.238-23.1-.974-25.2-1.938-5.529-5.6-5.024-6.624-6.143l-.05-.058c-.954-1.197-3.983-2.537-6.388-2.664z" fill="#182160"/><path data-name="Path" d="M219.95 160.907l-.093.333-2.357.011-2.71.382-12.159 29.99a5.326 5.326 0 001.4 2.621l.163.156-5.588 28.993 5.095 3.329 2.489-11.113q1.831-8.218 2.929-13.3l.892-4.175q1.811-8.259 9.939-37.227z" fill="rgba(0,0,0,0.1)"/><path data-name="Path" d="M197.334 194.504q15.538-23.744 15.7-28.515c.1-2.987-.715-6.66-6.736-4.51-4.173 1.491-20.335 26.577-21.826 32.389-1.719 6.692 14.323 5.736 12.862.636z" fill="#3c62ff"/><path data-name="Path" d="M207.157 165.925l-16.752 32.681c3.739.072 7.687-1.458 6.929-4.1l1.287-1.976q3.36-5.177 5.937-9.387z" fill="rgba(0,0,0,0.27)"/><path data-name="Path-4" d="M183.786 192.368c1.5-1.881 5.176-2.536 10.424-1.326s4.4 5.717 3.53 8.727c-1.767 6.094-10.678 4.917-13.27 2.106s-2.185-7.628-.684-9.507z" fill="#182160"/><path data-name="Path" d="M232.983 161.511l-.956-.067q-9.467 34.181-10.634 39.155c-1.166 4.974-1.246 10.361-.409 28.893a113.1 113.1 0 0024.544-3.634l-2.483-8.287c-1.463-4.938-3.119-3.043-3.6-5.128q-.883-3.863 4.979-20.929l.322-.932 6.692-16.427q-2.8-9.323-6.5-11.036c-1.382-.644-6.258-1.194-11.955-1.608zM219.208 160.8l-2.425-.07a66.983 66.983 0 00-6.769.031 7.828 7.828 0 00-1.3.464q-4.427 7.078-9.184 24.852c-4.757 17.774-8.082 33.771-7.47 34.815a31.184 31.184 0 007.137 5.209l.807-5.643c2.289-15.818 3.941-19.09 4.8-21.976q.862-2.89 14.404-37.682z" fill="#3c62ff"/><path data-name="Path" d="M241.042 180.145l-6.5 30.24-14.01 7.483.1 3.088c.089 2.493.207 5.316.352 8.535l.745-.019a113.847 113.847 0 0023.8-3.615l-2.483-8.288c-1.463-4.938-3.12-3.042-3.6-5.128q-.872-3.81 4.82-20.464l.48-1.4 2.143-5.26-.085-.667z" fill="rgba(0,0,0,0.27)"/><g data-name="Group-3" transform="translate(210.825 166.028)"><path data-name="Path" d="M36.171.501a13.572 13.572 0 011.876 2.028c3.534 4.2 17.222 31.01 16.487 36.595q-.194 1.466-5.019 5.334l-11.771-7.312a12.468 12.468 0 002.708-2.06c.246-.859-3.047-6.76-8.451-14.589-5.967-9.535-7.189-14.811-1.6-19.046 1.755-1.333 4.626-1.963 5.77-.95z" fill="#3c62ff"/><path data-name="Path" d="M39.531 38.355l11.3 5.979-7.317 3.126c-12.9 5.536-25.125 11.622-26.031 12.128-1.4.784-4.333 1.016-5.483 1.252a10.749 10.749 0 01-3.4 0c-.567-.2.57-.966 1.5-1.7q-3.888 1.469-4.234 1.136c-.373-.359.356-1.64 1.319-2.459q-5.915 2.237-7 1.767c-1.561-.681 7.123-5.456 8.356-5.694a36.689 36.689 0 016.916-.44z" fill="#ffada6"/><path data-name="Path-7" d="M17.082 54.022l2.827 4.711 2.064-1.24-2.892-4.494z" fill="#4d3544"/><ellipse data-name="Oval" cx="2.279" cy="1.14" rx="2.279" ry="1.14" transform="rotate(-32 100.278 .017)" fill="url(#b)"/><path data-name="Oval" d="M17.956 53.279c-1.067.667-2.2.775-2.537.241s.261-1.506 1.329-2.173 2.2-.775 2.538-.242-.263 1.508-1.33 2.174z" fill="#bdbcd7"/><path data-name="Path-29" d="M39.905 35.414a10.425 10.425 0 017.438 1.771c3.3 2.279 5.483 5.156 5.255 6.333s-6.708 4.268-7.294 4.155-.766-2.354-3.771-5.035-5.312-2.092-5.483-2.95q-.173-.858 3.855-4.274z" fill="#182160"/></g><path data-name="Path" d="M208.216 173.135c-.072 1.359 2.245 3.145 1.333 4.194l-1.2 1.352c-1.595 1.814-4.019 4.7-4.077 5.807l-.237 6.347q-.149 4.282-.391 11.387l.266-.7.239-.842c.128-.439.247-.835.355-1.2l.365-1.2q1.181-3.665 13.972-36.541l-1.5 1.432q-9.06 8.724-9.125 9.964zM232.046 161.448l-.025.025-5.427 19.681q-4.293 15.668-5.15 19.24l-.049.209a29.838 29.838 0 00-.568 3.9l2.155-3.112q7.655-11.1 8.021-12.289c.439-1.43-1.325-8.369-1.268-9.463s4.383-2.7 4.435-3.684v-.072q-.012-1.012-1.214-8.883l-.86-5.543z" fill="#182160"/><path data-name="Path" d="M165.898 173.09c-1.032-.849-6.99-6.53-7.408-10.307s2.5-10.071 3.6-10.283 1.632 2.265 5.627 9.289q1.592-6.534 2.478-6.439c1.36.143.65 6.191.91 7.357l.018.067a41.469 41.469 0 01.267 7.186q5.405 6.312 7.8 8.69c10.176 10.12 15.439 15.371 15.325 17.538-.214 4.094-3.8 7.265-8.819 4.334-5.856-3.415-18.116-26.042-19.798-27.432z" fill="#ffada6"/></g></g><g data-name="Group-19"><path d="M350.986 221.511a22.791 22.791 0 0122.791 22.792v60.777a22.791 22.791 0 01-22.791 22.791H22.791A22.792 22.792 0 010 305.08v-60.777a22.792 22.792 0 0122.791-22.792zm-31.908 5.318H53.939a20.517 20.517 0 00-20.512 20.173v55.038a20.513 20.513 0 0020.174 20.508H319.078a20.515 20.515 0 0020.512-20.173v-55.038a20.512 20.512 0 00-20.172-20.51z" fill="#a1b2f2"/><path data-name="Shape" d="M322.876 221.511a22.791 22.791 0 0122.792 22.792v60.777a22.791 22.791 0 01-22.792 22.791H22.791A22.792 22.792 0 010 305.08v-60.777a22.792 22.792 0 0122.791-22.792zm-3.8 5.318H53.939a20.517 20.517 0 00-20.512 20.173v55.038a20.513 20.513 0 0020.174 20.508H319.078a20.515 20.515 0 0020.512-20.173v-55.038a20.511 20.511 0 00-20.512-20.508z" fill="#c4d1ff"/><path data-name="Path" d="M53.94 226.829a20.511 20.511 0 00-20.509 20.172v55.039a20.513 20.513 0 0020.174 20.509h.338-27.351A20.513 20.513 0 016.08 302.037v-54.7a20.512 20.512 0 0120.512-20.512z" fill="#91a0da"/></g><g><g data-name="Group-32"><path data-name="Rectangle" d="M402.651 287.353h8.614v4.513h-8.614z" fill="#64af6e"/><path data-name="Rectangle" d="M410.788 282.566a2.393 2.393 0 012.393 2.393v4.991a1.914 1.914 0 01-1.915 1.915h-2.871v-6.906a2.393 2.393 0 012.393-2.393z" fill="#64af6e"/><path data-name="Rectangle" d="M400.82 276.276a5.264 5.264 0 015.265 5.266v27.281h-10.529v-27.281a5.264 5.264 0 015.264-5.266z" fill="#76c881"/><path data-name="Rectangle" fill="#76c881" d="M390.769 292.549h8.615v4.786h-8.615z"/><path data-name="Rectangle" d="M390.29 287.763a2.392 2.392 0 012.392 2.393v7.179h-1.912a2.872 2.872 0 01-2.873-2.872v-4.307a2.393 2.393 0 012.393-2.393z" fill="#76c881"/></g><path data-name="Rectangle" d="M388.353 301.346h24.313l-1.739 23.185a1.215 1.215 0 01-1.211 1.125h-18.408a1.218 1.218 0 01-1.213-1.125l-1.738-23.185z" fill="#c4d1ff"/><path data-name="Rectangle" d="M388.351 301.346h24.311a1.215 1.215 0 011.216 1.216v4.862a1.216 1.216 0 01-1.216 1.216h-24.311a1.216 1.216 0 01-1.215-1.216v-4.862a1.215 1.215 0 011.215-1.216z" fill="#a1b2f2"/></g><g transform="translate(150.836 184.286)"><path data-name="Rectangle" d="M4.627 35.287h82.919a.63.63 0 01.629.631v1.077a.629.629 0 01-.629.63H4.627a.63.63 0 01-.63-.63v-1.077a.631.631 0 01.63-.631z" fill="#fc60d2"/><path data-name="Rectangle" d="M60.079 35.287h27.467a.629.629 0 01.629.631v1.077a.629.629 0 01-.629.63H60.079a.63.63 0 01-.63-.63v-1.077a.631.631 0 01.63-.631zM3.04 0h51.038a3.039 3.039 0 013.015 2.652l3.757 29.31a3.039 3.039 0 01-2.628 3.4 3.173 3.173 0 01-.386.024H6.798a3.039 3.039 0 01-3.014-2.652L.026 3.423a3.039 3.039 0 012.628-3.4A3.137 3.137 0 013.04 0z" fill="#d64cb0"/><path data-name="Rectangle" d="M3.04 0h49.223a3.039 3.039 0 013.015 2.652l3.757 29.31a3.039 3.039 0 01-2.628 3.4 3.17 3.17 0 01-.385.024H6.798a3.039 3.039 0 01-3.014-2.652L.026 3.423a3.039 3.039 0 012.628-3.4A3.137 3.137 0 013.04 0z" fill="#fc60d2"/><ellipse data-name="Oval" cx="3.61" cy="3.938" rx="3.61" ry="3.938" transform="rotate(-37 38.751 -25.815)" fill="#d64cb0"/></g><g><g data-name="Group-5" transform="translate(130.16 181.924)"><path data-name="Rectangle" d="M.101 16.767h2.734a5.47 5.47 0 015.471 5.47H5.571a5.47 5.47 0 01-5.47-5.47zM16.511 19.227h-2.734a5.47 5.47 0 00-5.471 5.47h2.735a5.47 5.47 0 005.47-5.47z" fill="#76c881"/><path d="M7.804 11.934v17.843h.911V11.934z" fill="#64af6e"/><path d="M6.217 14.877l-.823.634a1.823 1.823 0 01-2.83-2.057l.348-.979-1.039.029a1.823 1.823 0 01-1.08-3.327l.856-.586-.856-.587a1.823 1.823 0 011.08-3.327l1.039.029-.348-.979a1.824 1.824 0 012.83-2.056l.823.634.293-1a1.823 1.823 0 013.5 0l.294 1 .823-.634a1.824 1.824 0 012.83 2.056l-.349.979 1.038-.029a1.823 1.823 0 011.081 3.327l-.857.587.857.586a1.823 1.823 0 01-1.081 3.327l-1.038-.029.349.979a1.824 1.824 0 01-2.83 2.057l-.823-.634-.294 1a1.823 1.823 0 01-3.5 0l-.293-1z" fill="#ffbf29"/><circle data-name="Oval" cx="4.102" cy="4.102" r="4.102" transform="translate(4.157 4.488)" fill="#d6a021"/></g><g data-name="Group-35"><g data-name="Group-34"><path data-name="Rectangle" d="M130.001 207.153h17.018l-1.935 14a.851.851 0 01-.843.734h-11.463a.851.851 0 01-.842-.734l-1.935-14z" fill="#c4d1ff"/><path data-name="Rectangle" d="M130.001 207.153h17.018a.851.851 0 01.851.851v2.644a.851.851 0 01-.851.851h-17.018a.851.851 0 01-.851-.851v-2.644a.851.851 0 01.851-.851z" fill="#a1b2f2"/></g></g></g><g data-name="Group-22" transform="translate(257.195 184.286)"><path data-name="Rectangle" d="M4.628 35.287h82.918a.63.63 0 01.629.631v1.077a.629.629 0 01-.629.63H4.628a.63.63 0 01-.631-.63v-1.077a.631.631 0 01.631-.631z" fill="#cf6fff"/><path data-name="Rectangle" d="M60.079 35.287h27.467a.63.63 0 01.629.631v1.077a.629.629 0 01-.629.63H60.079a.629.629 0 01-.63-.63v-1.077a.63.63 0 01.63-.631zM3.038 0h51.04a3.039 3.039 0 013.014 2.652l3.757 29.31a3.039 3.039 0 01-2.627 3.4 3.194 3.194 0 01-.387.024H6.797a3.038 3.038 0 01-3.014-2.652L.026 3.423a3.038 3.038 0 012.627-3.4A3.153 3.153 0 013.038 0z" fill="#aa58d4"/><path data-name="Rectangle" d="M3.038 0h49.224a3.041 3.041 0 013.016 2.652l3.756 29.31a3.037 3.037 0 01-2.627 3.4 3.189 3.189 0 01-.387.024H6.797a3.038 3.038 0 01-3.014-2.652L.026 3.423a3.038 3.038 0 012.627-3.4A3.153 3.153 0 013.038 0z" fill="#cf6fff"/><ellipse data-name="Oval" cx="3.61" cy="3.938" rx="3.61" ry="3.938" transform="rotate(-37 38.75 -25.815)" fill="#aa58d4"/></g></svg>