<svg xmlns="http://www.w3.org/2000/svg" width="174.6" height="9.387"><g data-name="Group 149"><path data-name="Path 49" d="M60.038 2.811l5.587 4.571 5.587-4.571m0 0l5.586 4.571 5.59-4.571m0 0l5.588 4.571 5.586-4.571m0 0l5.588 4.571 5.587-4.571m0 0l5.587 4.571 5.587-4.571" fill="none" stroke="#0c2785" stroke-linecap="round" stroke-linejoin="round" stroke-width="4"/><path data-name="Path 51" d="M115.911 2.811l5.587 4.571 5.59-4.571m0 0l5.586 4.571 5.587-4.571m0 0l5.587 4.571 5.589-4.571m0 0l5.587 4.571 5.587-4.571m0 0l5.588 4.571 5.589-4.571" fill="none" stroke="#0c2785" stroke-linecap="round" stroke-linejoin="round" stroke-width="4"/><g data-name="Group 77"><path data-name="Path 51" d="M2.814 2.811l5.587 4.571 5.59-4.571m0 0l5.586 4.571 5.587-4.571m0 0l5.587 4.571 5.589-4.571m0 0l5.587 4.571 5.587-4.571m0 0l5.588 4.571 5.589-4.571" fill="none" stroke="#0c2785" stroke-linecap="round" stroke-linejoin="round" stroke-width="4"/></g></g></svg>