<svg xmlns="http://www.w3.org/2000/svg" width="805.015" height="784.815"><g data-name="Group 162" transform="translate(-44.995)"><path data-name="Path 94" d="M601.369 340.607s-43.217 33.956-21.609 41.674 35.5-27.783 35.5-27.783z" fill="#ffb8b8"/><path data-name="Path 95" d="M602.838 328.056l-9.261 15.435s15.435 0 18.522 23.152l12.348-15.435z" fill="#cfcce0"/><path data-name="Path 96" d="M806.792 685.825l1.544 46.3-18.522 10.8-7.717-4.63 1.543-52.478z" fill="#ffb8b8"/><path data-name="Path 97" d="M698.097 673.477l3.087 49.391-43.217 18.522 3.087-26.239s12.348-20.065 9.261-41.674z" fill="#ffb8b8"/><path data-name="Path 98" d="M763.575 301.5s24.7 64.826 29.326 104.956 12.348 146.63 12.348 146.63l15.435 137.369-43.217 6.177-18.522-138.916-41.674-137.369-9.261 137.369-7.713 125.016-40.13 1.543-3.092-129.643-16.978-165.154 9.261-78.717z" fill="#2f2e41"/><path data-name="Path 99" d="M786.727 735.216s2.532-25.923 21.331-11.418l3.365-2.473 15.435 33.956s18.522 26.239-13.891 29.326-29.326-29.326-29.326-29.326l-3.087-13.891 1.543-9.1z" fill="#2f2e41"/><path data-name="Path 100" d="M698.115 704.346a24.521 24.521 0 0112.348 21.609c0 15.435-1.544 16.978-1.544 16.978l-23.152 6.174s-15.435-1.543-24.7 7.717-55.561 15.435-55.561 3.087 38.587-32.413 38.587-32.413 11.459-19.352 19.621-17.393 11.249 5.046 11.249 6.589-4.63 12.348-4.63 12.348 26.238-6.174 27.782-24.696z" fill="#2f2e41"/><circle data-name="Ellipse 38" cx="38.587" cy="38.587" r="38.587" transform="translate(655.533 24.029)" fill="#ffb8b8"/><path data-name="Path 101" d="M722.673 72.648l16.978 38.587-46.3 66.369s-3.087-72.543-12.348-84.891 41.67-20.065 41.67-20.065z" fill="#ffb8b8"/><path data-name="Path 102" d="M701.064 152.909l7.718-20.065 6.173 1.543 7.718-6.174 10.8-33.956 15.435 10.8 20.065 202.2-125.021 3.087 16.978-140.456 15.435-40.13 11.141-14.729 7.38 22.446z" fill="#cfcce0"/><path data-name="Path 103" d="M736.564 273.29l4.723-139.62s9.168.707 12.255 5.337 54.022 13.891 54.022 13.891l-9.261 143.543s38.587 114.218 24.694 120.388-38.587 4.63-38.587 4.63z" fill="#575a89"/><path data-name="Path 104" d="M662.747 192.125l16.374-94.1-36.439 24.642 9.261 67.913-7.717 46.3s-29.327 128.114-20.066 132.745 20.065 0 20.065 0l18.522-129.652z" fill="#575a89"/><path data-name="Path 105" d="M653.616 151.802l-10.8 3.087-4.63 61.739-7.718 54.022-37.044 66.369s18.522-12.348 26.239 23.152l40.8-71.026z" fill="#575a89"/><path data-name="Path 106" d="M772.836 328.083s-43.217 33.956-21.609 41.674 35.5-27.783 35.5-27.783z" fill="#ffb8b8"/><path data-name="Path 107" d="M799.075 344.907l-13.891 16.978-18.522-32.413 7.717-13.891z" fill="#cfcce0"/><path data-name="Path 108" d="M795.988 136.152l12.348-6.172s9.261 12.348 10.8 23.152 9.261 24.7 9.261 32.413 21.609 80.261 21.609 80.261L800.619 366.13s-10.8-37.043-33.956-40.13l38.586-54.02-21.609-38.587z" fill="#575a89"/><path data-name="Path 109" d="M726.422 25.85l7.276-2.913s-15.214-16.75-36.382-15.294l5.954-6.554s-14.553-5.826-27.783 9.467c-6.955 8.039-15 17.49-20.018 28.135h-7.792l3.252 7.161-11.383 7.161 11.684-1.286a40.019 40.019 0 00-.317 11.878 15.369 15.369 0 005.628 10.054s9.024-18.679 9.024-21.592v7.283s7.276-6.554 7.276-10.924l3.969 5.1 1.984-8.011 24.475 8.011-3.969-6.554 15.214 2.185-5.954-8.011s17.2 9.467 17.86 17.478 5.7 15.6 5.7 15.6 13.485-37.45-5.698-48.374z" fill="#2f2e41"/><ellipse data-name="Ellipse 39" cx="4.322" cy="5.402" rx="4.322" ry="5.402" transform="translate(721.439 51.039)" fill="#ffb8b8"/><path data-name="Path 110" d="M178.6 322.099H45.361v-37.336h69.549z" fill="#6c63ff"/><path data-name="Path 111" d="M44.995 317.91v109.082H477.66V317.91zm168.747 90.78H73.181v-15.374h140.561zm235.733-28.552H73.181v-15.374h376.294zm0-28.552H73.181v-15.373h376.294z" fill="#3f3d56"/><path data-name="Path 112" d="M178.6 156.159H45.361v-37.337h69.549z" fill="#6c63ff"/><path data-name="Path 113" d="M44.995 140.936v109.081H477.66V140.936zm168.747 90.779H73.181v-15.374h140.561zm81.262-28.553H73.181V187.79h221.823zm154.471-28.55H73.181v-15.374h376.294z" fill="#3f3d56"/><path data-name="Path 114" d="M178.6 497.322H45.361v-37.336h69.549z" fill="#6c63ff"/><path data-name="Path 115" d="M44.995 491.166v109.082H477.66V491.166zm250.009 90.779H73.181v-15.374h221.823zm0-28.552H73.181V538.02h221.823zm154.471-28.551H73.181v-15.374h376.294z" fill="#3f3d56"/><path data-name="Path 116" d="M597.277 226.057h-61.5v-61.5h41.73v1.464h-40.261v58.568h58.567v-29.28h1.464z" fill="#3f3d56"/><path data-name="Path 117" d="M566.115 209.911c-1.421-4.2-19.242-18.46-8.322-20.857l8.955 11.941 41.172-41.172 4.141 4.141z" fill="#6c63ff"/><path data-name="Path 118" d="M597.277 402.848h-61.5v-61.5h41.73v1.465h-40.261v58.567h58.567V372.1h1.464z" fill="#3f3d56"/><path data-name="Path 119" d="M566.115 386.663c-1.421-4.2-19.242-18.46-8.322-20.857l8.955 11.941 41.172-41.172 4.141 4.141z" fill="#6c63ff"/><path data-name="Path 120" d="M597.277 578.896h-61.5v-61.5h41.73v1.464h-40.261v58.567h58.567v-29.279h1.464z" fill="#3f3d56"/><path data-name="Path 121" d="M566.115 562.673c-1.421-4.2-19.242-18.46-8.322-20.857l8.955 11.941 41.172-41.172 4.141 4.141z" fill="#6c63ff"/></g></svg>