<svg xmlns="http://www.w3.org/2000/svg" width="745.529" height="522.041"><g data-name="Group 167"><g data-name="Group 166"><g data-name="Group 165"><g data-name="Group 164"><g data-name="Group 163" transform="translate(17.183)"><path data-name="Path 122" d="M711.346 521.451h-437a16.994 16.994 0 01-17-16.95V16.95a16.994 16.994 0 0117-16.95h437a16.994 16.994 0 0117 16.95v487.551a16.994 16.994 0 01-17 16.95zm-437-519.457a15 15 0 00-15 14.956v487.551a15 15 0 0015 14.956h437a15 15 0 0015-14.956V16.95a15 15 0 00-15-14.956z" fill="#3f3d56"/><path data-name="Rectangle 33" fill="#3f3d56" d="M258.346 41.59h469v2h-469z"/><circle data-name="Ellipse 40" cx="8" cy="8" r="8" transform="translate(273.346 14)" fill="#6c63ff"/><circle data-name="Ellipse 41" cx="8" cy="8" r="8" transform="translate(298.346 14)" fill="#6c63ff"/><circle data-name="Ellipse 42" cx="8" cy="8" r="8" transform="translate(323.346 14)" fill="#6c63ff"/><path data-name="Path 123" d="M648.846 114.718h-312a13 13 0 010-26h312a13 13 0 110 26zm-312-24a11 11 0 000 22h312a11 11 0 100-22z" fill="#3f3d56"/><path data-name="Path 124" d="M571.701 216.98h-142a8 8 0 010-16h142a8 8 0 010 16z" fill="#3f3d56"/><path data-name="Path 125" d="M653.701 243.897h-224a8 8 0 010-16h224a8 8 0 010 16z" fill="#3f3d56"/><path data-name="Path 126" d="M376.492 245.446h-43a9.511 9.511 0 01-9.5-9.5v-27a9.511 9.511 0 019.5-9.5h43a9.511 9.511 0 019.5 9.5v27a9.511 9.511 0 01-9.5 9.5zm-43-44a7.508 7.508 0 00-7.5 7.5v27a7.508 7.508 0 007.5 7.5h43a7.508 7.508 0 007.5-7.5v-27a7.508 7.508 0 00-7.5-7.5z" fill="#ccc"/><path data-name="Path 127" d="M571.701 311.69h-142a8 8 0 010-16h142a8 8 0 010 16z" fill="#3f3d56"/><path data-name="Path 128" d="M653.701 338.602h-224a8 8 0 010-16h224a8 8 0 110 16z" fill="#3f3d56"/><path data-name="Path 129" d="M376.492 340.133h-43a9.511 9.511 0 01-9.5-9.5v-27a9.511 9.511 0 019.5-9.5h43a9.511 9.511 0 019.5 9.5v27a9.511 9.511 0 01-9.5 9.5zm-43-44a7.508 7.508 0 00-7.5 7.5v27a7.508 7.508 0 007.5 7.5h43a7.508 7.508 0 007.5-7.5v-27a7.508 7.508 0 00-7.5-7.5z" fill="#ccc"/><path data-name="Path 130" d="M571.701 406.395h-142a8 8 0 010-16h142a8 8 0 010 16z" fill="#babac0"/><path data-name="Path 131" d="M653.701 433.312h-224a8 8 0 010-16h224a8 8 0 010 16z" fill="#babac0"/><path data-name="Path 132" d="M376.492 434.825h-43a9.511 9.511 0 01-9.5-9.5v-27a9.511 9.511 0 019.5-9.5h43a9.511 9.511 0 019.5 9.5v27a9.511 9.511 0 01-9.5 9.5z" fill="#f2f2f2"/><path data-name="Path 133" d="M354.992 237.176l-2.315-2.089c-8.223-7.549-13.651-12.449-13.651-18.553a8.683 8.683 0 018.782-8.835 9.445 9.445 0 017.185 3.374 9.445 9.445 0 017.18-3.374 8.683 8.683 0 018.782 8.835c0 6.1-5.429 11-13.651 18.553z" fill="#6c63ff"/><path data-name="Path 134" d="M354.992 331.878l-2.315-2.089c-8.223-7.549-13.651-12.449-13.651-18.553a8.683 8.683 0 018.782-8.835 9.445 9.445 0 017.185 3.373 9.445 9.445 0 017.18-3.373 8.683 8.683 0 018.782 8.835c0 6.1-5.429 11-13.651 18.553z" fill="#6c63ff"/><path data-name="Path 135" d="M215.5 179.774h-43a9.511 9.511 0 01-9.5-9.5v-27a9.511 9.511 0 019.5-9.5h43a9.511 9.511 0 019.5 9.5v27a9.511 9.511 0 01-9.5 9.5zm-43-44a7.508 7.508 0 00-7.5 7.5v27a7.508 7.508 0 007.5 7.5h43a7.508 7.508 0 007.5-7.5v-27a7.508 7.508 0 00-7.5-7.5z" fill="#3f3d56"/><path data-name="Path 136" d="M194 171.517l-2.315-2.089c-8.223-7.549-13.651-12.449-13.651-18.553a8.683 8.683 0 018.782-8.835 9.445 9.445 0 017.185 3.374 9.445 9.445 0 017.185-3.373 8.683 8.683 0 018.782 8.835c0 6.1-5.429 11-13.651 18.553z" fill="#6c63ff"/><path data-name="Path 147" d="M193 522.041H1a1 1 0 110-2h192a1 1 0 010 2z" fill="#ccc"/></g></g></g><g data-name="humaaans/standing-3"><g data-name="Head/Front/Pony"><path data-name="Path 148" d="M95.439 81.374c-3.182-6.694-4.533-14.214-2.004-21.557 7.295-21.153 36.036-8.364 38.955 4.083s-5.177 39.86-13.24 39.784c-3.216-.034-9.116-3.65-14.583-9.33l-3.672 30.068-24.182-6.483z" fill="#d4a181" fill-rule="evenodd"/><path d="M104.218 82.102c-4.538 4.953-9.853 8.172-13.993 7.063-7.869-2.11-10.643-14.131-7.61-25.442q.16-.596.34-1.178C73.097 66.02 63.663 75.564 52.648 72.61c-14.983-4.018-12.831-35.836 8.104-30.223 14.237 3.817 20.684 7.77 25.896 12.459a20.302 20.302 0 017.41-6.748 8.41 8.41 0 012.866-1.063 11.557 11.557 0 012.23-.321 51.966 51.966 0 0115.47 1.482c1.11.256 2.192.535 3.242.831a10.43 10.43 0 117.915 12.94 52.642 52.642 0 01-11.782-1.106 21.748 21.748 0 01-.8 5.578 31.635 31.635 0 01-2.07 5.47 4.874 4.874 0 00-2.973-2.774 6.255 6.255 0 00-7.665 4.424c-1.06 3.95.455 7.42 3.727 8.542z" fill="#191847" fill-rule="evenodd"/></g><g data-name="Bottom/Standing/Sweatpants"><path d="M45.888 252.172l38.2 131.641 17.968 98.839h18.041l-18.007-230.48z" fill="#ba8b72" fill-rule="evenodd"/><path data-name="Leg" d="M28.719 252.172c2.666 68.387 1.615 105.687 1.018 111.9s-3.984 47.826-27.063 120.666h18.758c30.565-69.878 41.235-111.49 44.74-120.666s13.859-46.475 28.975-111.9z" fill="#d4a181" fill-rule="evenodd"/><path d="M45.068 252.172q14.905 67.947 51.56 216.922h26.378c1.948-101.939-6.34-169.032-20.693-216.922z" fill="#2f2e41" fill-rule="evenodd"/><path data-name="Pant" d="M28.586 252.172c2.611 68.387-4.155 135.761-25.112 217.987h28.143c30.622-68.834 52.569-135.876 67.568-217.987z" fill="#2f2e41" fill-rule="evenodd"/><path d="M0 498.295l1.035-16.687q9.09 2.658 22.77-2.086 14.709 10.42 37.035 14.23a2.086 2.086 0 011.705 2.407 2.115 2.115 0 01-.049.218l-1.431 5.046H2.07z" fill="#191847" fill-rule="evenodd" data-name="Accessories/Shoe/Flat-Simple"/><g data-name="Accessories/Shoe/Flat-Simple"><path data-name="Shoe" d="M98.032 498.295l1.035-16.687q9.09 2.658 22.77-2.086 14.709 10.42 37.035 14.23a2.086 2.086 0 011.705 2.407 2.115 2.115 0 01-.049.218l-1.431 5.046h-58.995z" fill="#191847" fill-rule="evenodd"/></g></g><g data-name="Body/Pointing-Forward" fill-rule="evenodd"><path d="M120.51 163.29l39.092-13.238a89.513 89.513 0 0120.414-13.313c1.888-.428 5.04-.325 1.264 4.27s-7.538 9.602-6.352 11.435 5.231.279 6.515 3.2q1.286 2.92-20.177 4.95l-30.082 19.151zm52.927 26.32l17.175-5.842q5.508-11.96 10.104-11.23c2.541-.68-3.41 9.165 1.201 9.036s16.898-6.295 18.48-4.324c2.34 2.914-1.446 9.928-5.004 13.123-6.658 5.969-11.577 7.544-23.25 8.684q-9.153.894-20.585 6.423z" fill="#d4a181"/><path d="M103.914 155.88a88.943 88.943 0 0049.38-5.776l4.234 16.79c-14.398 10.001-33.393 16.956-48.388 13.875-11.812-2.426-15.348-17.858-5.226-24.889z" fill="#6c63ff"/><path d="M116.328 183.797q19.01 8.465 68.75.063 7.375 26.065 4.696 36.139c-29.233 9.264-53.274 11.45-72.248 8.53-1.376 11.32-4.623 21.751-10.929 30.694-12.962 18.383-64.891-9.919-84.097-9.534-4.97-39.799 20.211-51.177 24.488-75.33 4.683-26.445 33.102-63.415 36.227-62.864l28.497 5.025c-1.99 20.479 2 44.137 4.616 67.277z" fill="#6c63ff"/></g></g></g></g></svg>