<svg data-name="Group 172" xmlns="http://www.w3.org/2000/svg" width="863" height="826.714"><path data-name="Path 239" d="M740.085 309.387C695.168 132.765 539.968 5.269 357.8.157c-96.312-2.7-197.656 29.236-271.441 141.01-131.9 199.808 8.106 337.882 105.714 403.492a610.758 610.758 0 01126.241 113.465c65.931 78.233 192.767 175.459 343.823 23.133C771.622 570.843 770 427.034 740.085 309.387z" fill="#f2f2f2"/><path data-name="Path 240" d="M862 702.714c0 43.354-189.189 124-427.5 124S0 751.068 0 707.714s196.189-38 434.5-38 427.5-10.357 427.5 33z" fill="#3f3d56"/><path data-name="Path 241" d="M862 702.714c0 43.354-189.189 124-427.5 124S0 751.068 0 707.714s196.189-38 434.5-38 427.5-10.357 427.5 33z" opacity=".1"/><ellipse data-name="Ellipse 62" cx="431.5" cy="78.5" rx="431.5" ry="78.5" transform="translate(0 628.714)" fill="#3f3d56"/><path data-name="Path 242" d="M594.859 440.238v209.944l35.117 57.231 2.673 4.353h138.563l2.8-271.528z" fill="#2f2e41"/><path data-name="Path 243" d="M594.859 440.238v209.944l35.117 57.231 2.155-267.175z" opacity=".1"/><path data-name="Path 244" d="M260.348 434.639v209.944l-35.117 57.231-2.673 4.353H83.994l-2.8-271.528z" fill="#2f2e41"/><path data-name="Path 245" d="M260.348 434.639v209.944l-35.117 57.231-2.156-267.175z" opacity=".1"/><path data-name="Path 246" d="M816 430.44v12.6H63v-18.198l69.981-36.39h621.435z" fill="#2f2e41"/><path data-name="Path 247" d="M816 430.44v12.6H63v-18.198z" opacity=".1"/><path data-name="Path 248" d="M170.771 493.424H137.18l-14-9.8h62.983z" opacity=".1"/><path data-name="Path 249" d="M170.771 534.013H137.18l-14-9.8h62.983z" opacity=".1"/><path data-name="Path 250" d="M170.771 591.4H137.18l-14-9.8h62.983z" opacity=".1"/><path data-name="Path 251" d="M170.771 648.782H137.18l-14-9.8h62.983z" opacity=".1"/><path data-name="Path 252" d="M684.435 499.022h33.591l14-9.8h-62.987z" opacity=".1"/><path data-name="Path 253" d="M684.435 539.611h33.591l14-9.8h-62.987z" opacity=".1"/><path data-name="Path 254" d="M684.435 597h33.591l14-9.8h-62.987z" opacity=".1"/><path data-name="Path 255" d="M684.435 654.381h33.591l14-9.8h-62.987z" opacity=".1"/><path data-name="Path 256" d="M532.516 353.426l-4.669 29.808s-22.984 12.21-6.823 12.569 92.3 0 92.3 0 14.724 0-8.619-12.929l-4.669-31.244z" fill="#3f3d56"/><path data-name="Path 257" d="M517.773 395.48a63.569 63.569 0 0110.074-6.669l4.669-29.807 67.516.064 4.668 29.389a61.3 61.3 0 0110.788 7.1c3-.684 6.274-3.226-10.788-12.676l-4.669-31.244-67.516 1.8-4.669 29.807s-19.312 10.252-10.073 12.236z" opacity=".1"/><rect data-name="Rectangle 66" width="304.18" height="211.885" rx="10.695" transform="translate(413.824 145.672)" fill="#3f3d56"/><path data-name="Rectangle 67" fill="#f2f2f2" d="M424.059 156.984h283.71v158.734h-283.71z"/><circle data-name="Ellipse 63" cx="1.796" cy="1.796" r="1.796" transform="translate(564.118 150.16)" fill="#f2f2f2"/><path data-name="Path 258" d="M718.005 328.288v18.574a10.694 10.694 0 01-10.7 10.695H424.519a10.694 10.694 0 01-10.695-10.7v-18.569z" fill="#3f3d56"/><circle data-name="Ellipse 64" cx="6.823" cy="6.823" r="6.823" transform="translate(559.091 336.189)" fill="#f2f2f2"/><path data-name="Path 259" d="M555.281 415.2v3.592h-193.21v-2.873l.266-.719 4.762-12.928h184.232z" fill="#3f3d56"/><path data-name="Path 260" d="M629.635 411.68c-.352 1.5-1.681 3.092-4.683 4.593-10.774 5.387-32.68-1.436-32.68-1.436s-16.879-2.873-16.879-10.415a13.466 13.466 0 011.48-.88c4.53-2.4 19.548-8.31 46.178.25a11.106 11.106 0 015.062 3.317 5.3 5.3 0 011.523 4.57z" fill="#3f3d56"/><path data-name="Path 261" d="M629.635 411.68c-13.187 5.053-24.941 5.43-37-2.948-6.084-4.223-11.611-5.268-15.758-5.189 4.53-2.4 19.548-8.31 46.178.25a11.106 11.106 0 015.062 3.317 5.3 5.3 0 011.523 4.57z" opacity=".1"/><ellipse data-name="Ellipse 65" cx="4.669" cy="1.437" rx="4.669" ry="1.437" transform="translate(608.432 405.859)" fill="#f2f2f2"/><path data-name="Path 262" d="M555.281 415.2v3.592h-193.21v-2.873l.266-.719z" opacity=".1"/><path data-name="Path 263" d="M665.694 231.951c-1.524-1.524-21.087-26.169-24.39-30.234-3.557-4.065-5.081-3.3-7.368-3.049s-26.931 4.573-29.726 4.827c-2.795.508-4.573 1.524-2.795 4.065 1.524 2.287 17.784 25.152 21.341 30.488l-64.786 15.5-51.32-86.129c-2.033-3.049-2.541-4.065-7.114-3.811s-40.4 3.3-42.937 3.3c-2.541.254-5.335 1.27-2.795 7.368s43.191 93.5 44.207 96.036 4.065 6.606 10.925 5.081c7.114-1.778 31.5-8.13 44.969-11.687 7.114 12.7 21.341 38.618 24.136 42.429 3.557 5.081 6.1 4.065 11.433 2.541 4.319-1.27 66.565-23.628 69.359-24.9s4.573-2.033 2.541-4.827c-1.524-2.033-17.784-24.136-26.423-35.569 5.844-1.524 26.931-7.114 29.217-7.876 2.541-.762 3.049-2.033 1.524-3.557zm-117.632 24.136c-.762.254-37.093 8.892-38.872 9.4-2.033.508-2.033.254-2.033-.508-.508-.762-43.191-89.176-43.953-90.193-.508-1.016-.508-2.033 0-2.033s34.3-3.049 35.315-3.049c1.27 0 1.016.254 1.524 1.016 0 0 47.51 82.063 48.272 83.333 1.016 1.27.508 1.778-.254 2.033zM650.2 275.142c.508 1.016 1.27 1.524-.762 2.033-1.778.762-61.229 20.833-62.5 21.341s-2.033.762-3.557-1.524-20.833-35.569-20.833-35.569l63.262-16.514c1.524-.508 2.033-.762 3.049.762 1.016 1.778 20.833 28.709 21.341 29.471zm4.065-44.715c-1.524.254-24.644 6.1-24.644 6.1l-19.055-25.915c-.508-.762-1.016-1.524.254-1.778s22.866-4.065 23.882-4.319 1.778-.508 3.049 1.27c1.27 1.524 17.53 22.358 18.293 23.12s-.259 1.267-1.783 1.522z" fill="#fb503b"/><circle data-name="Ellipse 66" cx="38.247" cy="38.247" r="38.247" transform="translate(356.392 117.648)" fill="#ffb9b9"/><path data-name="Path 264" d="M366.457 175.018v60.39h62.4s-8.052-50.325-4.026-65.422z" fill="#ffb9b9"/><path data-name="Path 265" d="M490.256 256.544s-59.383-29.188-59.383-31.2-6.039-15.1-10.065-15.1-38.247-11.071-57.37 5.032l-2.013 13.084-73.474 48.312 20.13 73.474s13.084 14.091 9.058 24.156 3.019 61.4 3.019 61.4l158.019-5.032v-68.445s5.032-16.1 8.052-21.136 0-20.13 0-20.13l24.156-30.195s-3.019-28.182-20.129-34.22z" fill="#d0cde1"/><path data-name="Path 266" d="M290.467 301.332l4.529-24.659s-26.168 113.734-23.149 126.818 25.162 33.214 28.182 34.221 31.2-86.558 31.2-86.558z" opacity=".1"/><path data-name="Path 267" d="M305.061 273.657l-17.11 3.019S261.782 390.407 264.8 403.491s25.162 33.214 28.182 34.221 31.2-86.558 31.2-86.558z" fill="#d0cde1"/><path data-name="Path 268" d="M495.791 307.371l8.555-16.607s12.078 113.734 4.026 124.8-39.9 15.214-39.9 15.214l-.357-82.649z" opacity=".1"/><path data-name="Path 269" d="M497.3 277.68l13.084 13.084s12.078 113.734 4.026 124.8-39.9 15.214-39.9 15.214l-.357-82.649z" fill="#d0cde1"/><path data-name="Path 270" d="M302.042 450.796s-29.188-11.071-34.221 10.065S279.9 576.608 279.9 576.608s11.071 71.461 18.117 73.474 38.247 3.019 43.279-6.039S326.2 542.387 326.2 542.387l116.753-2.013s-7.045 80.519-11.071 87.565-4.026 31.2 0 31.2 48.312-2.013 51.331-8.052 20.13-141.915 20.13-141.915 14.091-47.305-2.013-44.286-199.288-14.09-199.288-14.09z" fill="#3f3d56"/><path data-name="Path 271" d="M474.152 647.062s10.065-7.045 15.1 0 7.045 15.1-15.1 27.175-39.253 9.058-39.253 7.045v-29.187z" fill="#2f2e41"/><path data-name="Path 272" d="M300.029 644.043s-10.065-7.045-15.1 0-7.046 15.1 15.1 27.175 39.253 9.058 39.253 7.045v-29.188z" fill="#2f2e41"/><path data-name="Path 273" d="M394.887 107.669a32.348 32.348 0 00-11.233 1.6 43.428 43.428 0 00-8 4.234l-16.886 10.5a7.908 7.908 0 00-4.766 7.37l-2.11 15.8c-.532 3.988-1.023 8.252.762 11.858 1.49 3.009 4.331 5.069 6.668 7.48a27.456 27.456 0 017.236 14.061c1.208 6.6.435 14.542 5.656 18.753 2.827 2.28 6.68 2.711 10.306 2.923a153.786 153.786 0 0029.7-1.143 11.82 11.82 0 004.487-1.257c1.775-1.05 2.892-2.9 3.937-4.681 3.771-6.42 7.657-13.249 7.616-20.694-.02-3.683-.963-7.639.806-10.87a42.5 42.5 0 013.034-3.946c2.19-3.077 2.616-7.03 2.973-10.79 1.14-12.009-.052-21.147-8.9-29.606-8.263-7.893-20.019-11.519-31.286-11.592z" fill="#2f2e41"/><path data-name="Path 274" d="M300.937 569.7l-33.591 170.758h16.795L316.333 572.5z" fill="#2f2e41"/><path data-name="Path 275" d="M408.708 583.7L429.7 779.648h14L431.1 578.1z" fill="#2f2e41"/><path data-name="Path 276" d="M466.093 578.1l29.392 130.166h14L481.489 575.3z" fill="#2f2e41"/><path data-name="Path 277" d="M354.123 578.1l-4.2 103.573h11.2l8.4-103.573z" fill="#2f2e41"/><path data-name="Path 278" d="M277.143 551.508s-22.394-149.76 40.589-153.959 152.559 0 152.559 0 51.786-4.2 36.39 153.959c0 0 14 46.188-111.97 41.989s-117.568-41.989-117.568-41.989z" fill="#6c63ff"/><path data-name="Path 279" d="M851 612.665c0 26.115-15.525 35.234-34.676 35.234s-34.676-9.118-34.676-35.234 34.676-59.338 34.676-59.338S851 586.55 851 612.665z" fill="#6c63ff"/><path data-name="Path 280" d="M815.416 622.048l14.784-27.039-14.724 23.61.16-9.827 10.186-19.563-10.144 16.962.287-17.675 10.908-15.574-10.863 12.795.18-32.41-1.079 41.067-11.051-16.907 10.912 20.372-1.033 19.74-.031-.524-12.785-17.863 12.746 19.714-.129 2.469-.023.037.011.2-2.622 26.342h3.5l.42-2.128 12.715-19.667L815.06 643.9z" fill="#3f3d56"/><path data-name="Path 281" d="M838.47 704.549h-41.341l-10.684-60.386h60.386z" fill="#2f2e41"/><path data-name="Rectangle 68" fill="#3f3d56" d="M145 296.3h86v100.828h-86z"/><path data-name="Rectangle 69" fill="#f2f2f2" d="M158.345 311.946h59.31v69.536h-59.31z"/><path data-name="Path 282" d="M193.944 326.714l-6.023 10.431-6.021-10.431h-20.057l26.079 45.171L214 326.714z" fill="#4dba87"/><path data-name="Path 283" d="M193.944 326.714l-6.023 10.431-6.021-10.431h-9.624l15.647 27.1 15.647-27.1z" fill="#435466"/></svg>