<svg xmlns="http://www.w3.org/2000/svg" width="900.944" height="787"><defs><linearGradient id="a" x1=".5" y1="1" x2=".5" gradientUnits="objectBoundingBox"><stop offset="0" stop-color="gray" stop-opacity=".251"/><stop offset=".54" stop-color="gray" stop-opacity=".122"/><stop offset="1" stop-color="gray" stop-opacity=".102"/></linearGradient></defs><g data-name="Group 171" transform="translate(.004)"><path data-name="Rectangle 38" fill="#6c63ff" opacity=".2" d="M763.63 283h52v27h-52z"/><path data-name="Rectangle 39" fill="#6c63ff" opacity=".2" d="M767.63 316h52v27h-52z"/><path data-name="Rectangle 40" fill="#6c63ff" opacity=".2" d="M724.63 87h52v27h-52z"/><path data-name="Rectangle 41" fill="#6c63ff" opacity=".2" d="M761.63 118h52v27h-52z"/><path data-name="Rectangle 42" fill="#6c63ff" opacity=".2" d="M661.63 89h52v27h-52z"/><path data-name="Rectangle 43" fill="#6c63ff" opacity=".2" d="M828.63 149h52v27h-52z"/><path data-name="Rectangle 44" fill="#6c63ff" opacity=".2" d="M765.63 151h52v27h-52z"/><path data-name="Rectangle 45" fill="#6c63ff" opacity=".2" d="M698.63 120h52v27h-52z"/><path data-name="Rectangle 46" fill="#6c63ff" opacity=".2" d="M825.63 357h52v27h-52z"/><path data-name="Rectangle 47" fill="#6c63ff" opacity=".2" d="M762.63 359h52v27h-52z"/><path data-name="Path 211" d="M130.75 276s73.29 73.29 31.92 182 70.91 289.64 70.91 289.64-1.2-.18-3.43-.57C79.63 720.5 4.84 548.35 88.58 420.5c31.08-47.59 56.62-103.36 42.17-144.5z" fill="#6c63ff"/><path data-name="Path 212" d="M130.75 276s41.37 89.84 0 163.12-7.09 279 102.84 308.52" fill="none" stroke="#535461" stroke-miterlimit="10" stroke-width="2"/><path data-name="Path 213" d="M.21 572.42s83.63-13.32 91.25 61.63 160.82 85.34 160.82 85.34-1 .68-2.87 1.91c-126.49 83-247.4 52.89-229.17-57.36 6.77-40.99 6.21-82.16-20.03-91.52z" fill="#6c63ff"/><path data-name="Path 214" d="M.21 572.42s83.63-13.32 91.25 61.63 160.82 85.34 160.82 85.34-1 .68-2.87 1.91c-126.49 83-247.4 52.89-229.17-57.36 6.77-40.99 6.21-82.16-20.03-91.52z" fill="#f5f5f5" opacity=".2"/><path data-name="Path 215" d="M.21 572.42s64.91 14.25 59.58 73.27 96.4 129.81 192.49 73.7" fill="none" stroke="#535461" stroke-miterlimit="10" stroke-width="2"/><path data-name="Rectangle 48" fill="#6c63ff" opacity=".2" d="M.63 284h52v27h-52z"/><path data-name="Rectangle 49" fill="#6c63ff" opacity=".2" d="M37.63 315h52v27h-52z"/><path data-name="Rectangle 50" fill="#6c63ff" opacity=".2" d="M318.63 0h52v27h-52z"/><path data-name="Rectangle 51" fill="#6c63ff" opacity=".2" d="M728.63 498h52v27h-52z"/><path data-name="Rectangle 52" fill="#6c63ff" opacity=".2" d="M41.63 348h52v27h-52z"/><path data-name="Rectangle 53" fill="#6c63ff" opacity=".2" d="M355.63 31h52v27h-52z"/><path data-name="Rectangle 54" fill="#6c63ff" opacity=".2" d="M165.63 214h52v27h-52z"/><path data-name="Rectangle 55" fill="#6c63ff" opacity=".2" d="M202.63 245h52v27h-52z"/><path data-name="Rectangle 56" fill="#6c63ff" opacity=".2" d="M301.63 228h52v27h-52z"/><path data-name="Rectangle 57" fill="#6c63ff" opacity=".2" d="M206.63 278h52v27h-52z"/><path data-name="Rectangle 58" fill="#6c63ff" opacity=".2" d="M798.63 498h52v27h-52z"/><path data-name="Path 216" d="M870.07 447.61a412.24 412.24 0 01-6.18-56.71 76 76 0 00-53.46-69.38c-5.46-1.68-11.47-3.25-18.11-4.66-58.2-12.36-75.88-1.57-77.89-.15a74.631 74.631 0 01-4.43-9.61c-.1-.34-.19-.68-.29-1a74.51 74.51 0 0019.91-44.89c9.71-9.84 15.38-21.72 15.38-34.51 0-11-4.2-21.32-11.55-30.25v-17.38a75.57 75.57 0 00-75.57-75.57h-6.13a75.57 75.57 0 00-75.57 75.57v18.73c-6.67 8.61-10.45 18.44-10.45 28.88 0 12.52 5.44 24.16 14.78 33.88a74.52 74.52 0 0020.74 46.34c.41 2.84.83 5.89 1.24 9.11L498.39 338s-40.14 1.65-66 55c-21.87 45.19-65.39 161.29-78.28 195.85-2.33 6.26-3.65 9.85-3.65 9.85s.43-.43 1.24-1.17l-1.24 3.37s.63-.64 1.83-1.69c-1.82 14.46-2.08 39.29 16.86 42.38 15.88 2.59 56.8 3.66 87.71 4.09H459c20.49.27 36.08.27 36.08.27v-.27h332.44v-3.41a22.908 22.908 0 00-1.83-9l.46-.56a18.25 18.25 0 013.45 8 8.013 8.013 0 01-.16.84l.2-.51a8.562 8.562 0 01-.2 2.71s42.65-109.89 42.19-175.51a111.166 111.166 0 00-1.56-20.63zM604.22 330.86a76.242 76.242 0 01-1.06-9.48v-.09c.37 3.09.73 6.29 1.06 9.57zM475 566.9v26.19l-16.4 3.51z" transform="translate(-149.42 -56.5)" fill="url(#a)"/><path data-name="Path 217" d="M503.71 57.57a75.57 75.57 0 0175.57 75.57v32.24H428.14v-32.24a75.57 75.57 0 0175.57-75.57z" fill="#e14b5a"/><ellipse data-name="Ellipse 60" cx="86.14" cy="59.19" rx="86.14" ry="59.19" transform="translate(418.1 116.76)" fill="#e14b5a"/><path data-name="Path 218" d="M449.02 233.29s18 94.07 0 119.44 55 35.41 55 35.41l75.56-27.48 10.57-67.65s-46-25.9-36.47-78.22z" fill="#f7c4a7"/><path data-name="Path 219" d="M672.04 550.39S676.8 571 650.9 574.7a146.452 146.452 0 01-46.08-.55l-5.71-51.77h60.25z" fill="#f7c4a7"/><path data-name="Path 220" d="M214.7 524.01s-11.44 46.49 14.46 50.69 121 4.23 121 4.23v-55l-43.06 9.2-40.42-38.76z" fill="#f7c4a7"/><path data-name="Path 221" d="M454.58 263.68l-101.21 21.4s-38.58 1.59-63.42 52.85-78.75 197.66-78.75 197.66 46-46.51 99.89 3.17l35.94-65-7.93 103.06h278.48v-48.63s58.13 31.18 53.91 48.62c0 0 49.75-128.18 39-186.43a396.174 396.174 0 01-5.94-54.5 73 73 0 00-51.38-66.67c-5.24-1.61-11-3.12-17.4-4.47-59.72-12.68-75 0-75 0s-11.57 37.64-11.36 54.7c.26 21.93-31.18 36.47-31.18 36.47s-46.51-11.1-48.62-20.08-18.75-61.58-15.03-72.15z" opacity=".1"/><path data-name="Path 222" d="M454.58 261.57l-101.21 21.4s-38.58 1.59-63.42 52.85-78.76 197.68-78.76 197.68 46-46.51 99.89 3.17l35.94-65-7.93 103.03h278.49v-48.62s58.13 31.18 53.91 48.62c0 0 49.75-128.18 39-186.43a396.194 396.194 0 01-5.94-54.5 73 73 0 00-51.38-66.67c-5.24-1.61-11-3.12-17.4-4.47-59.72-12.68-75 0-75 0s-11.57 37.64-11.36 54.7c.26 21.93-31.18 36.47-31.18 36.47s-46.51-11.1-48.62-20.08-18.75-61.58-15.03-72.15z" fill="#575988"/><path data-name="Path 223" d="M558 257.08a71.53 71.53 0 01-2.76-37.52l-104.66 18.49s1.51 7.91 3.22 19.76a71.86 71.86 0 00104.18-.73z" opacity=".1"/><path data-name="Path 224" d="M575.85 203.17a71.875 71.875 0 11-143.74 1.74c.01-.58.01-1.16.01-1.74a71.856 71.856 0 0183.93-70.87 71.82 71.82 0 0159.61 66.1q.19 2.37.19 4.77z" fill="#f7c4a7"/><g data-name="Group 170" opacity=".1"><path data-name="Path 225" d="M478.94 137.43l.1-.06a71.816 71.816 0 00-46.93 67.43v1.74a16 16 0 006.45-1.55c17.52-8.18 28-33.2 32.16-50.65 1.5-6.25 2.91-13.29 8.22-16.91z"/><path data-name="Path 226" d="M533.95 139.44a71.279 71.279 0 00-17.87-5.51 23.06 23.06 0 0112.83 8.06 32.858 32.858 0 013.93 7 72.07 72.07 0 00-60.45 1.25c4.51 9.89 18.5 15.28 27.84 18.89q15.34 5.92 31 10.83l-9.24-7.5 20.87 3.32a36.153 36.153 0 00-1.46-12.3c4 3.22 9.3 4.3 13.64 7 8.13 5.13 11.52 15 15.95 23.55 1.17 2.26 2.55 4.57 4.66 6a71.91 71.91 0 00-41.7-60.59z"/></g><path data-name="Path 227" d="M478.94 135.8l.1-.06a71.816 71.816 0 00-46.93 67.43v1.74a16 16 0 006.45-1.55c17.52-8.18 28-33.2 32.16-50.65 1.5-6.21 2.91-13.28 8.22-16.91z" fill="#632652"/><path data-name="Path 228" d="M533.95 137.82a71.279 71.279 0 00-17.87-5.51 23.06 23.06 0 0112.83 8.06 32.859 32.859 0 013.93 7 72.07 72.07 0 00-60.45 1.25c4.51 9.89 18.5 15.28 27.84 18.89q15.34 5.92 31 10.83l-9.24-7.5 20.87 3.32a36.153 36.153 0 00-1.46-12.3c4 3.22 9.3 4.3 13.64 7 8.13 5.13 11.52 15 15.95 23.55 1.17 2.26 2.55 4.57 4.66 6a71.91 71.91 0 00-41.7-60.59z" fill="#632652"/><path data-name="Path 229" d="M423.91 191.32s74-92 159.61 0l-7.4-20.61s-40.17-58.66-68.7-46-56.55 21.67-56.55 21.67z" opacity=".1"/><path data-name="Path 230" d="M423.91 189.69s74-92 159.61 0l-7.4-20.61s-40.17-58.66-68.7-46-56.55 21.67-56.55 21.67z" fill="#e14b5a"/><path data-name="Path 231" d="M363.13 387.88s-15.85 42.28 6.34 80.33-19.55 53.91-19.55 53.91" opacity=".1"/><path data-name="Path 232" d="M619.98 349.83s27.48 34.88 9.51 66.06-16.91 106.23-16.91 106.23" opacity=".1"/><path data-name="Path 233" d="M338.82 553.3h305.47a25.37 25.37 0 0125.37 25.37h-356.2a25.37 25.37 0 0125.36-25.37z" fill="#535461"/><path data-name="Path 234" d="M369.9 378.89h243.32a39 39 0 0139 39v141.22H330.9V417.89a39 39 0 0139-39z" fill="#535461"/><circle data-name="Ellipse 61" cx="19.03" cy="19.03" r="19.03" transform="translate(472.26 457.9)" fill="#fff"/><path data-name="Path 235" d="M428.14 148.2s72.72-72.68 151.15-1.33" fill="none" stroke="#000" stroke-miterlimit="10" opacity=".1"/><path data-name="Rectangle 59" fill="#6a5c99" d="M590.36 143.57h7.3v41.39h-7.3z"/><path data-name="Path 236" d="M580.62 170.35a25.16 25.16 0 0125.16 25.16v1.62a25.16 25.16 0 01-25.16 25.16z" fill="#ffd037"/><rect data-name="Rectangle 60" width="11.36" height="56.81" rx="5.68" transform="translate(575.75 167.92)" fill="#6a5c99"/><path data-name="Rectangle 61" fill="#6a5c99" d="M416.32 185.77h-7.3v-41.39h7.3z"/><path data-name="Path 237" d="M426.06 223.1a25.16 25.16 0 01-25.16-25.16v-1.62a25.16 25.16 0 0125.16-25.16z" fill="#ffd037"/><rect data-name="Rectangle 62" width="11.36" height="56.81" rx="5.68" transform="rotate(180 215.465 112.765)" fill="#6a5c99"/><path data-name="Path 238" d="M589.5 99.33c-9.89-20.56-31.43-45.42-77.86-47.41v-.06h-.56l-16.45.78v.08c-46.12 2.12-67.56 26.89-77.42 47.38a106.59 106.59 0 00-10.22 44.4l5.68-.14 5.68-.13a96.651 96.651 0 019.23-39.52c12.52-25.72 35.56-39.39 68.47-40.66l14.55-.81c32.93 1.26 55.98 14.95 68.49 40.66a96.652 96.652 0 019.25 39.54l5.68.13 5.68.14a106.59 106.59 0 00-10.2-44.38z" fill="#ffd037"/><path data-name="Rectangle 63" fill="#d6d6e3" d="M74.28 579h774.71v208H74.28z"/><path data-name="Rectangle 64" opacity=".1" d="M74.28 593h774.71v27H74.28z"/><path data-name="Rectangle 65" fill="#d6d6e3" d="M22.31 576h878.63v27H22.31z"/></g></svg>