<svg xmlns="http://www.w3.org/2000/svg" width="57.669" height="47.797"><g data-name="Group 120"><g data-name="Logo Icon" fill="#fff" stroke="#fff"><path data-name="Path 18" d="M55.397.5v15.4l-1.771-.738V.5h-1.771v14.752l-.885.553-.885-.553V.5h-1.771v14.665l-1.771.738V.5h-1.771v16.81l6.2 8.175 6.2-8.175V.5zm-4.425 22.222l-1.749-2.306h3.5zm2.867-3.782h-5.734l-1.174-1.549 2.182-.907 1.86 1.165 1.859-1.165 2.182.907zm0 0"/><path data-name="Path 19" d="M25.487 16.727l-3.1 10.326H35.28l-3.1-10.326zm-.831 8.851l2.214-7.376h3.93l2.214 7.376zm0 0"/><path data-name="Path 20" d="M35.033 9.973V4.925h3.542V3.45h-3.542V.5h-1.771v2.95h-8.855V.5h-1.771v2.95h-3.541v1.475h3.542v5.048l-2.63 6.754H7.584v-2.95H5.813v2.95H.5V18.2h5.313v7.376H.5v1.475h5.313V30h1.771v-2.95h8.4L10.24 41.805H5.813v1.475h3.855l-1.347 3.46L10 47.2l1.53-3.92h5.5l-1.2 3.485 1.7.406 1.334-3.891h4.644v-1.475h-4.125l3.035-8.851h12.833l3.035 8.851h-4.139v1.475h4.644l1.334 3.891 1.7-.406-1.2-3.485h5.5l1.539 3.92 1.682-.456L48 43.28h3.855v-1.475h-4.426zM24.407 4.925h8.854v4.426h-8.854zM7.584 25.578V18.2h11.848l-2.871 7.376zm9.957 16.227H12.1l1.436-3.688h5.266zm20.816-5.163l-1.771-5.163h-15.5l-1.771 5.163h-5.2l10.051-25.816H33.5l10.054 25.816zm1.771 5.163l-1.265-3.688h5.266l1.441 3.688zm0 0"/></g></g></svg>