<svg xmlns="http://www.w3.org/2000/svg" width="64.674" height="51.791"><g data-name="Group 119"><g data-name="Marketing Icon"><g data-name="Group 36"><g data-name="Group 35"><path data-name="Path 21" d="M63.749 45.61h0a3.813 3.813 0 00-3.274-1.653h-1.62a3.762 3.762 0 001.25-2.732v-9.787a.953.953 0 00-1.862 0v9.791c0 1.506-1.525 2.732-3.4 2.732H9.825c-1.875 0-3.4-1.226-3.4-2.732v-24.6c0-1.506 1.525-2.732 3.4-2.732h10.45a7.866 7.866 0 00-.208 2.138h-9.333a1.55 1.55 0 00-1.686 1.355v22.884a1.8 1.8 0 001.96 1.575h42.658a1.8 1.8 0 001.96-1.575V17.61a1.8 1.8 0 00-1.96-1.575h-9.058c.008-.209.007-.308.007-.308a8.069 8.069 0 00-.214-1.831h10.448c1.875 0 3.4 1.226 3.4 2.732v11.32a.953.953 0 001.862 0V16.627c0-2.331-2.36-4.228-5.261-4.228H43.896c-1.438-3.227-4.914-5.717-9.3-6.373a.938.938 0 00-1.085.6.776.776 0 00.745.872c10.15 1.512 11.606 12.857 1.988 15.988a1.149 1.149 0 00-.872 1.043v1.753h-2.1v-6.684h1.418a1.943 1.943 0 002.114-1.7v-.767a1.943 1.943 0 00-2.114-1.7h-4.7a1.943 1.943 0 00-2.114 1.7v.767a1.943 1.943 0 002.114 1.7h1.418v6.684h-2.1c0-1.961 0-1.845-.013-1.949a1.128 1.128 0 00-.815-.833c-9.649-3.1-8.226-14.338 1.795-15.978a.769.769 0 00.726-.882.946.946 0 00-1.1-.584c-4.056.664-7.605 3.009-9.106 6.343H9.825c-2.9 0-5.261 1.9-5.261 4.228v24.6a3.762 3.762 0 001.25 2.732H4.199A3.812 3.812 0 00.925 45.61c-1.3 2.164.918 5.676 5.055 5.676h52.714c4.153.005 6.342-3.524 5.055-5.676zm-52.839-28a.091.091 0 01.1-.079h4.022v2.448H10.91zm33.5-.079h9.254a.091.091 0 01.1.079v2.369H43.426a8.542 8.542 0 00.985-2.45zm-14.423.573a.235.235 0 01-.253-.2v-.767a.235.235 0 01.253-.2h4.7a.235.235 0 01.253.2v.767a.235.235 0 01-.253.2zm-2.16 10.063c0-.178.162-.389.544-.389h7.932c.363 0 .544.195.544.388v.391a.45.45 0 01-.484.388H28.31a.45.45 0 01-.484-.389zm6.507 2.274l-.571.918a1.789 1.789 0 01-2.851 0l-.571-.918zM22.35 21.473a12.2 12.2 0 005.09 3.3v1.587a1.788 1.788 0 00-1.475 1.618v.765a1.941 1.941 0 002.112 1.7h.178l.987 1.587a3.879 3.879 0 006.181 0l.988-1.587h.182a1.941 1.941 0 002.112-1.7v-.765a1.788 1.788 0 00-1.475-1.618v-1.585a12.171 12.171 0 005.095-3.3h11.44v18.8a.091.091 0 01-.1.079H11.008a.091.091 0 01-.1-.079v-18.8zm-1.1-1.5h-4.36v-2.444h3.375a8.58 8.58 0 00.99 2.448zm4.294 25.48h13.585v.5a1.058 1.058 0 01-1.152.926h-11.28a1.059 1.059 0 01-1.152-.926zm33.148 4.337H5.981c-2.778 0-4.074-2.37-3.378-3.531a1.859 1.859 0 011.6-.806h19.481v.5a2.77 2.77 0 003.013 2.422h11.28a2.77 2.77 0 003.013-2.422v-.5h19.485a1.859 1.859 0 011.6.806c.68 1.142-.566 3.536-3.381 3.536z" fill="#fff" stroke="#fff"/></g></g><g data-name="Group 38"><g data-name="Group 37"><path data-name="Path 22" d="M48.38 7.943a1.063 1.063 0 00-1.271-.274l-2.019.937a.674.674 0 00-.341 1.022 1.063 1.063 0 001.272.274l2.019-.937a.674.674 0 00.34-1.022z" fill="#fff" stroke="#fff"/></g></g><g data-name="Group 40"><g data-name="Group 39"><path data-name="Path 23" d="M41.601 2.494a1.063 1.063 0 00-1.271.274l-1.166 1.623a.675.675 0 00.341 1.022 1.064 1.064 0 001.272-.274l1.166-1.623a.674.674 0 00-.342-1.022z" fill="#fff" stroke="#fff"/></g></g><g data-name="Group 42"><g data-name="Group 41"><path data-name="Path 24" d="M32.338.5a.855.855 0 00-.931.748v1.874a.953.953 0 001.862 0V1.248A.854.854 0 0032.338.5z" fill="#fff" stroke="#fff"/></g></g><g data-name="Group 44"><g data-name="Group 43"><path data-name="Path 25" d="M25.512 4.391l-1.166-1.623a1.063 1.063 0 00-1.271-.274.674.674 0 00-.341 1.022L23.9 5.139a1.063 1.063 0 001.271.274.674.674 0 00.341-1.022z" fill="#fff" stroke="#fff"/></g></g><g data-name="Group 46"><g data-name="Group 45"><path data-name="Path 26" d="M19.586 8.606l-2.019-.937a1.063 1.063 0 00-1.271.274.674.674 0 00.341 1.022l2.019.937a1.063 1.063 0 001.271-.274.675.675 0 00-.341-1.022z" fill="#fff" stroke="#fff"/></g></g></g></g></svg>